<svg width="900" height="900" clip-rule="evenodd" fill-rule="evenodd" stroke-linejoin="round" stroke-miterlimit="2" viewBox="0 0 900 900" xmlns="http://www.w3.org/2000/svg"><g fill="#111" fill-rule="nonzero"><path d="m432.806 806.668c.68.151.959.88.348 1.729s-1.472-.274-1.472-.274c-.123-1.062.444-1.607 1.124-1.455z" transform="matrix(0 -1 1 0 10.3227 897.677)"/><path d="m776.394 505.18c-.122-1.062.444-1.607 1.124-1.455s.96.88.348 1.729c-.611.849-1.472-.274-1.472-.274z" transform="matrix(0 -1 1 0 10.3227 907.677)"/><path d="m230.4 644.089c.68.152.96.88.348 1.729-.611.849-1.472-.274-1.472-.274-.122-1.061.444-1.607 1.124-1.455z" transform="matrix(0 -1 1 0 10.3227 897.677)"/><path d="m574.997 402.383c.679.936.657 2.011-.401 2.186-1.058.176-1.495-1.973-1.495-1.973.348-1.238 1.218-1.15 1.896-.213z" transform="matrix(0 -1 1 0 10.3227 897.677)"/><path d="m531.048 2.242c.908 1.277-1.162 2.128-1.162 2.128-1.597-.247-2.092-1.332-1.519-2.305s1.772-1.1 2.681.177z" transform="matrix(0 -1 1 0 20.3227 897.677)"/><path d="m882.978 607.117c.17 1.114-.661 2.048-2.188 1.858 0 0-1.564-1.4-.29-2.411 1.274-1.012 2.308-.561 2.478.553z" transform="matrix(0 -1 1 0 10.3227 897.677)"/><path d="m759.967 779.276s.348 2.957-1.217 2.709c-1.566-.247-2.08-1.727-1.545-3.014.534-1.287 1.72-1.401 2.762.305z" transform="matrix(0 -1 1 0 30.3227 887.677)"/><path d="m747 767.121s-.523 1.314-1.37.729c-.846-.586-.781-1.348-.155-1.708.625-.359 1.34-.039 1.525.979z" transform="matrix(0 -1 1 0 10.3227 897.677)"/><path d="m704.93 547.49s.388 1.47-.66 1.508c-1.049.039-1.468-.66-1.183-1.372s1.062-.896 1.843-.136z" transform="matrix(0 -1 1 0 10.3227 897.677)"/><path d="m637 237.121s-.523 1.314-1.37.729c-.846-.586-.781-1.348-.155-1.708.625-.359 1.34-.039 1.525.979z" transform="matrix(0 -1 1 0 10.3227 897.677)"/><path d="m632 685.704s-.75 1.958-2.032 1.06c-1.282-.897-1.203-2.038-.276-2.562.928-.524 2.005-.028 2.308 1.502z" transform="matrix(0 -1 1 0 10.3227 897.677)"/><path d="m628 209.682s-.524 1.971-1.37 1.092c-.846-.878-.781-2.02-.155-2.56.625-.54 1.339-.06 1.525 1.468z" transform="matrix(0 -1 1 0 .322677 927.677)"/><path d="m597.824 832.999c-1.574-.053-2.141-.778-1.655-1.453.486-.676 1.664-.788 2.769.027 0 0 .458 1.479-1.114 1.426z" transform="matrix(0 -1 1 0 10.3227 897.677)"/><path d="m451.968 652.764c-1.282-.897-1.203-2.038-.276-2.562.928-.524 2.005-.028 2.308 1.503l-.012.029c-.098.236-.83 1.864-2.02 1.03z" transform="matrix(0 -1 1 0 10.3227 897.677)"/><path d="m327.731 68.971c-.747-.163-1.021-.895-.346-1.784 0 0 1.433-.621 1.591.401.159 1.021-.496 1.546-1.245 1.383z" transform="matrix(0 -1 1 0 10.3227 897.677)"/><path d="m308.979 470.744c.17.743-.662 1.366-2.19 1.24 0 0-1.563-.934-.29-1.608 1.275-.675 2.31-.374 2.48.368z" transform="matrix(0 -1 1 0 -106.041 990.165)"/><g transform="matrix(0 -1 1 0 10.3227 897.677)"><path d="m300.678 538.242c.535.468.43 1.244-.516 1.758 0 0-1.441-.053-1.114-1.043.328-.989 1.095-1.182 1.63-.715z"/><path d="m298.678 541.363c.535.701.43 1.867-.516 2.637 0 0-1.441-.08-1.114-1.564.328-1.484 1.095-1.773 1.63-1.073z"/><path d="m255.734 522.28c.489.497.322 1.266-.65 1.72 0 0-1.415-.14-1.012-1.107.402-.966 1.173-1.111 1.662-.613z"/><path d="m213.929 855.49s.39 1.47-.66 1.508c-1.048.039-1.467-.66-1.182-1.372s1.062-.895 1.842-.136z"/><path d="m143.988 201.734c-.098.236-.83 1.864-2.02 1.03-1.282-.897-1.203-2.038-.276-2.562.928-.524 2.005-.028 2.308 1.503z"/><path d="m112.929 229.49s.39 1.47-.66 1.508c-1.048.039-1.467-.66-1.182-1.372s1.062-.895 1.842-.136z"/><path d="m104.929 229.49s.39 1.47-.66 1.508c-1.048.039-1.467-.66-1.182-1.372s1.062-.896 1.842-.136z"/><path d="m62.959 724.573s.306 1.479-.744 1.425v.001c-1.048-.053-1.427-.778-1.102-1.453.323-.675 1.109-.788 1.846.027z"/><path d="m43.814 40.984c-.767-.119-1.108-.829-.508-1.749 0 0 1.386-.696 1.637.308s-.361 1.561-1.129 1.441z"/><path d="m816.824 483.002c-1.573.079-2.141 1.166-1.655 2.179l-.001.001c.486 1.012 1.665 1.181 2.77-.04 0 0 .458-2.22-1.114-2.14z"/></g><path d="m549.977 535.077s.298-2.218-1.262-2.07c-1.561.149-2.05 1.25-1.493 2.233.555.983 1.742 1.097 2.755-.163z" transform="matrix(0 -1 1 0 -9.67732 917.677)"/><path d="m359.247 826.3c-.472.512-.283 1.276.698 1.7 0 0 1.403-.184.973-1.138-.429-.954-1.2-1.076-1.671-.562z" transform="matrix(0 -1 1 0 10.3227 897.677)"/><path d="m302.678 492.758c.535-.468.43-1.244-.516-1.758 0 0-1.441.053-1.114 1.043.328.989 1.095 1.182 1.63.715z" transform="matrix(0 -1 1 0 -106.041 990.165)"/><path d="m300.517 485.758c.803-.468.644-1.245-.774-1.758 0 0-2.162.053-1.67 1.043.491.989 1.642 1.182 2.444.715z" transform="matrix(0 -1 1 0 -106.041 990.165)"/><path d="m278.084 469-.032.004c-.21.028-1.346.224-.98 1.103.402.966 1.173 1.111 1.662.613.489-.497.322-1.266-.65-1.72z" transform="matrix(0 -1 1 0 -106.041 990.165)"/><path d="m268.305 767.648c-.598-1.379-.258-2.444.51-2.624.767-.18 1.38.655 1.128 2.161-.251 1.506-1.638.463-1.638.463z" transform="matrix(0 -1 1 0 10.3227 897.677)"/><path d="m150.222 882.987c-.557-1.31-.068-2.78 1.493-2.978 1.56-.197 1.262 2.761 1.262 2.761-1.013 1.68-2.2 1.527-2.755.217z" transform="matrix(0 -1 1 0 .322677 894.677)"/><path d="m25.306 593.765c-.6-.919-.259-1.63.508-1.749.768-.12 1.38.437 1.129 1.441s-1.637.308-1.637.308z" transform="matrix(0 -1 1 0 10.3227 897.677)"/><path d="m587.364 884.511c.091 1.025.785 1.346 1.408.98.621-.367.697-1.145-.097-1.81 0 0-1.4-.195-1.311.83z" transform="matrix(0 -1 1 0 10.3227 897.677)"/><path d="m789.08 143.87c-1.289-.774-1.632-1.838-1.112-2.431s1.504-.27 2.175 1.102c.672 1.371-1.063 1.329-1.063 1.329z" transform="matrix(0 -1 1 0 10.3227 897.677)"/><path d="m490.276 143.753c-1.023-.399-1.159-1.176-.604-1.718.555-.545 1.376-.448 1.756.515s-1.152 1.203-1.152 1.203z" transform="matrix(0 -1 1 0 10.3227 897.677)"/><path d="m356.799 885.017c.234-1.023 1.018-1.247 1.632-.788.613.46.589 1.258-.346 1.816 0 0-1.52-.006-1.286-1.028z" transform="matrix(0 -1 1 0 10.3227 897.677)"/><path d="m254.708 609.195c.234-1.023 1.018-1.247 1.632-.787.614.459.589 1.257-.346 1.815 0 0-1.52-.005-1.286-1.028z" transform="matrix(0 -1 1 0 10.3227 897.677)"/><path d="m304.238 414.476c.924-.48 1.955.094 2.192 1.683 0 0-.806 1.96-2.021.961-1.216-1.001-1.095-2.165-.171-2.644z" transform="matrix(0 -1 1 0 -125.967 897.677)"/><path d="m327.442 52.408c.785-.665 1.504-.405 1.69.292.185.696-.309 1.305-1.341 1.22 0 0-1.133-.846-.349-1.512z" transform="matrix(0 -1 1 0 10.3227 897.677)"/><path d="m701.539 251.002c-2.098-.039-2.936.66-2.366 1.372.569.712 2.124.896 3.686.136 0 0 .776-1.47-1.32-1.508z" transform="matrix(0 -1 1 0 10.3227 897.677)"/><path d="m140.904 721.002c-1.574-.039-2.201.66-1.774 1.372s1.593.896 2.764.136c0 0 .582-1.47-.99-1.508z" transform="matrix(0 -1 1 0 10.3227 897.677)"/></g></svg>