<?xml version="1.0" encoding="UTF-8" standalone="no"?>
<!DOCTYPE svg PUBLIC "-//W3C//DTD SVG 1.1//EN" "http://www.w3.org/Graphics/SVG/1.1/DTD/svg11.dtd">
<svg width="100%" height="100%" viewBox="0 0 3399 49" version="1.1" xmlns="http://www.w3.org/2000/svg" xmlns:xlink="http://www.w3.org/1999/xlink" xml:space="preserve" xmlns:serif="http://www.serif.com/" style="fill-rule:evenodd;clip-rule:evenodd;stroke-linejoin:round;stroke-miterlimit:2;">
    <g transform="matrix(1,0,0,1,-54.7214,-63.4369)">
        <g transform="matrix(1.5833e-16,2.58572,-2.58572,1.5833e-16,3520.97,-1803.8)">
            <path d="M731.099,39.736C731.011,39.836 730.863,39.926 730.849,40.046C730.833,40.166 730.942,40.296 730.997,40.426C731.086,40.326 731.232,40.226 731.249,40.106C731.266,39.996 731.154,39.856 731.099,39.736ZM729.044,43.786L728.829,44.146L729.15,44.206L729.044,43.786ZM725.355,673.035C725.295,672.912 725.235,672.788 725.175,672.665C725.144,672.892 725.113,673.12 725.082,673.347C725.173,673.243 725.264,673.139 725.355,673.035ZM733.078,1227.77L732.839,1228.08L733.163,1228.17L733.078,1227.77ZM732.519,103.246L732.55,102.986L732.27,103.096L732.519,103.246ZM736.851,118.886L737.143,118.926L737.036,118.576L736.851,118.886ZM726.187,748.587C726.13,748.475 726.073,748.363 726.015,748.251C725.939,748.349 725.811,748.444 725.802,748.548C725.794,748.655 725.903,748.771 725.96,748.883C726.036,748.784 726.112,748.686 726.187,748.587ZM733.054,1140.73C733.09,1140.62 733.126,1140.51 733.162,1140.4C733.041,1140.47 732.919,1140.54 732.798,1140.61C732.883,1140.65 732.968,1140.69 733.054,1140.73ZM725.024,920.446L724.825,920.715L725.122,920.78L725.024,920.446ZM733.995,393.12L734.196,392.747L733.84,392.72L733.995,393.12ZM728.948,382.78L729.065,383.072L729.181,382.78L728.948,382.78ZM731.132,53.506C731.203,53.406 731.327,53.316 731.328,53.216C731.329,53.116 731.206,53.016 731.137,52.916C731.068,53.016 730.947,53.116 730.946,53.206C730.946,53.306 731.065,53.406 731.132,53.506ZM737.016,352.909C736.853,353.123 736.565,353.337 736.564,353.553C736.562,353.765 736.851,353.98 737.012,354.193C737.176,353.983 737.471,353.772 737.469,353.564C737.466,353.344 737.18,353.127 737.016,352.909ZM728.252,62.536C728.177,62.406 728.102,62.276 728.027,62.136C727.919,62.406 727.778,62.666 727.719,62.946C727.696,63.056 727.86,63.196 727.938,63.326C728.043,63.066 728.148,62.796 728.252,62.536ZM733.196,1242.47L732.925,1242.54L733.076,1242.85L733.196,1242.47ZM733.067,1234.7C732.989,1234.81 732.859,1234.92 732.847,1235.04C732.833,1235.17 732.928,1235.31 732.975,1235.44C733.056,1235.33 733.189,1235.22 733.203,1235.1C733.218,1234.97 733.117,1234.83 733.067,1234.7ZM729.265,450.776C729.277,450.644 729.316,450.505 729.285,450.384C729.275,450.344 729.081,450.35 728.971,450.334C728.964,450.469 728.935,450.609 728.966,450.735C728.975,450.77 729.161,450.764 729.265,450.776ZM733.984,316.868L733.823,317.199L734.036,317.25L733.984,316.868ZM726.587,568.728C726.539,568.855 726.418,569.017 726.461,569.101C726.511,569.198 726.703,569.228 726.833,569.287C726.882,569.159 727.003,568.997 726.961,568.914C726.91,568.816 726.718,568.787 726.587,568.728ZM733.088,132.936L732.913,132.986L733.002,133.266L733.088,132.936ZM733.075,1158.14L732.917,1157.93L732.917,1158.35L733.075,1158.14ZM734.212,522.187C734.126,522.061 734.04,521.934 733.953,521.807C733.839,522.076 733.691,522.338 733.628,522.618C733.605,522.718 733.788,522.861 733.877,522.984C733.989,522.719 734.101,522.453 734.212,522.187ZM726.063,771.913C725.966,771.997 725.821,772.067 725.785,772.171C725.737,772.31 725.774,772.477 725.774,772.631C725.93,772.532 726.133,772.461 726.223,772.321C726.271,772.246 726.123,772.053 726.063,771.913ZM733.854,181.566C733.854,182.026 733.846,182.466 733.87,182.906C733.872,182.936 734.101,182.956 734.225,182.986C734.25,182.556 734.282,182.116 734.286,181.686C734.286,181.656 734.066,181.626 733.854,181.566ZM732.771,1119.95C732.988,1119.71 733.181,1119.58 733.163,1119.5C733.093,1119.18 732.955,1118.87 732.843,1118.56C732.821,1118.98 732.799,1119.39 732.771,1119.95ZM732.942,807.011C732.971,807.262 733.001,807.514 733.03,807.765C733.087,807.658 733.172,807.557 733.194,807.444C733.218,807.319 733.2,807.179 733.166,807.054C733.158,807.023 733.021,807.025 732.942,807.011ZM736.883,381.15C737.103,380.986 737.487,380.837 737.504,380.656C737.527,380.401 737.278,380.124 737.145,379.856C736.936,380.021 736.576,380.169 736.555,380.354C736.528,380.604 736.76,380.882 736.883,381.15ZM732.716,120.476C733.003,120.136 733.269,119.966 733.305,119.746C733.35,119.486 733.205,119.186 733.141,118.906C732.913,118.976 732.486,119.056 732.488,119.116C732.504,119.526 732.611,119.926 732.716,120.476ZM733.927,573.603C734.031,573.567 734.228,573.522 734.225,573.495C734.2,573.219 734.143,572.946 734.094,572.672C734.019,572.715 733.88,572.758 733.88,572.801C733.878,573.068 733.907,573.336 733.927,573.603ZM727.129,871.453C726.937,871.356 726.616,871.14 726.576,871.182C726.383,871.38 726.266,871.649 726.122,871.892C726.336,871.989 726.678,872.215 726.742,872.156C726.929,871.983 727.008,871.697 727.129,871.453ZM725.169,334.96C725.146,334.81 725.123,334.662 725.1,334.512C725.037,334.638 724.935,334.759 724.92,334.89C724.903,335.032 724.967,335.183 724.995,335.331C725.053,335.207 725.111,335.083 725.169,334.96ZM729.087,1048.92C729.019,1048.94 728.897,1048.94 728.891,1048.97C728.864,1049.11 728.87,1049.25 728.863,1049.39C728.937,1049.38 729.071,1049.37 729.075,1049.34C729.097,1049.21 729.086,1049.06 729.087,1048.92ZM728.933,435.184C729.039,435.17 729.228,435.173 729.235,435.139C729.267,434.993 729.271,434.831 729.235,434.686C729.202,434.549 729.106,434.427 729.038,434.298C729.003,434.593 728.968,434.889 728.933,435.184ZM733.96,399.481C733.99,399.403 734.044,399.325 734.046,399.246C734.049,399.114 734.019,398.981 734.003,398.848C733.972,398.927 733.917,399.005 733.915,399.084C733.912,399.216 733.943,399.349 733.96,399.481ZM736.847,1325.5C737.072,1325.21 737.246,1325.08 737.223,1325C737.13,1324.68 736.978,1324.38 736.847,1324.08L736.847,1325.5ZM734.103,1327.56C733.925,1327.78 733.731,1327.92 733.752,1328.01C733.83,1328.34 733.98,1328.66 734.103,1328.98L734.103,1327.56ZM724.332,113.696C723.341,114.746 723.04,115.476 724.499,116.376C724.438,115.396 724.394,114.686 724.332,113.696ZM726.809,632.717C726.917,632.708 727.025,632.7 727.133,632.691C727.102,632.274 727.07,631.856 727.039,631.438C726.925,631.447 726.811,631.456 726.697,631.465C726.735,631.882 726.772,632.3 726.809,632.717ZM733.942,160.966C734.105,160.256 734.246,159.896 734.25,159.536C734.253,159.316 734.048,159.086 733.936,158.866C733.842,159.136 733.684,159.416 733.672,159.696C733.659,159.986 733.788,160.286 733.942,160.966ZM733.019,1110.03C733.096,1110.03 733.174,1110.03 733.252,1110.04C733.284,1109.46 733.315,1108.88 733.347,1108.31C733.238,1108.3 733.128,1108.3 733.019,1108.29L733.019,1110.03ZM735.631,276.566C735.353,276.526 735.074,276.486 734.796,276.436L734.796,278.826C734.971,278.846 735.146,278.856 735.322,278.866C735.425,278.096 735.528,277.336 735.631,276.566ZM734.081,386.203C734.035,386.197 733.99,386.192 733.944,386.186L733.944,387.794C733.99,387.799 734.035,387.803 734.081,387.808L734.081,386.203ZM727.197,549.417C727.005,549.433 726.812,549.448 726.62,549.464C726.686,550.075 726.753,550.687 726.82,551.299C726.945,551.285 727.071,551.271 727.197,551.256L727.197,549.417ZM732.132,63.936C731.94,63.956 731.748,63.976 731.555,63.996C731.629,64.716 731.702,65.436 731.776,66.156C731.894,66.146 732.013,66.126 732.132,66.116L732.132,63.936ZM734.392,311.861C734.115,311.645 733.807,311.406 733.5,311.167C733.342,311.427 732.992,311.77 733.066,311.931C733.223,312.276 733.599,312.527 733.886,312.818C734.025,312.555 734.163,312.293 734.392,311.861ZM727.26,52.286L727.044,52.286L727.044,54.936L727.26,54.936L727.26,52.286ZM733.113,1151.8C733.031,1151.8 732.95,1151.8 732.869,1151.8L732.869,1153.99L733.113,1153.99L733.113,1151.8ZM734.306,172.206L733.861,172.206L733.861,175.096L734.306,175.096L734.306,172.206ZM727.058,562.277C727.157,561.44 727.256,560.603 727.396,559.426C726.209,560.512 726.955,561.417 727.058,562.277ZM729.098,456.268C728.99,457.875 728.953,458.437 728.915,459C728.976,459.002 729.037,459.004 729.098,459.006L729.098,456.268ZM729.214,440.158C729.142,440.159 729.069,440.16 728.997,440.16L728.997,443.513C729.069,443.513 729.142,443.512 729.214,443.512L729.214,440.158ZM734.215,356.623C734.044,356.626 733.874,356.629 733.704,356.632C733.764,357.824 733.825,359.015 733.886,360.207C733.995,360.203 734.105,360.198 734.215,360.194L734.215,356.623ZM733.062,1099.19C732.412,1100.73 731.814,1102.27 733.179,1104.53C734.007,1102.36 734.012,1100.79 733.062,1099.19ZM731.769,71.126L731.769,76.016C732.672,74.386 732.258,72.756 731.769,71.126ZM733.845,586.155C734.705,584.43 734.255,582.74 733.845,581.049L733.845,586.155ZM725.441,689.87C725.331,692.195 724.131,694.571 725.441,697.714L725.441,689.87ZM732.569,113.096C732.83,113.026 733.092,112.956 733.353,112.896C733.224,110.726 733.096,108.566 732.967,106.396C732.848,106.466 732.729,106.536 732.569,106.626L732.569,113.096ZM732.525,939.119L732.525,947.466C733.217,944.678 733.505,941.896 732.525,939.119ZM734.118,599.4C733.907,600.298 733.718,600.739 733.713,601.183C733.684,603.698 733.699,606.214 733.699,608.729C733.839,608.729 733.978,608.73 734.118,608.73L734.118,599.4ZM726.44,865.13L726.44,855.863C725.506,859.023 726.504,861.352 725.055,863.321C724.96,863.45 725.663,864.134 726.44,865.13ZM727.139,77.226C728.232,71.296 728.112,68.926 726.441,65.746C726.614,69.796 725.942,73.046 727.139,77.226ZM729.262,46.916C728.438,48.116 728.096,48.376 728.108,48.626C728.266,51.946 728.474,55.266 728.67,58.576C729.694,55.006 729.491,51.456 729.262,46.916ZM724.894,941.003C724.998,941 725.102,940.997 725.206,940.995L725.206,928.327C725.102,928.329 724.998,928.331 724.894,928.334L724.894,941.003ZM726.932,92.866C727.02,92.866 727.108,92.876 727.197,92.876C727.38,91.176 727.23,89.366 727.83,87.816C728.609,85.816 726.901,84.156 727.511,82.246C727.717,81.606 727.34,80.786 727.23,80.046C727.13,80.066 727.031,80.086 726.932,80.106L726.932,92.866ZM734.42,261.586C732.772,263.396 732.896,265.316 732.775,267.137C732.735,267.747 732.918,268.426 733.204,268.966C733.377,269.296 733.994,269.666 734.318,269.596C734.643,269.526 734.918,268.966 735.089,268.566C735.204,268.306 735.236,267.836 735.074,267.646C734.03,266.406 733.982,265.166 734.699,263.736C734.927,263.276 734.564,262.536 734.42,261.586ZM732.903,137.606C732.903,139.496 732.921,141.386 732.9,143.276C732.857,146.996 732.848,146.996 733.772,148.816C735.29,145.026 732.622,141.446 732.903,137.606ZM732.864,80.876C732.351,87.276 731.17,93.676 732.844,100.076C733.519,93.676 732.939,87.276 732.864,80.876ZM733.697,243.646C734.628,235.206 734.684,226.786 734.389,218.366C734.3,215.816 734.222,213.266 734.214,210.726C734.191,203.246 734.206,195.756 734.206,188.276C733.767,192.016 733.784,195.766 733.763,199.506C733.725,206.356 734.102,213.236 733.49,220.046C732.886,226.746 733.341,233.366 733.531,240.026C733.566,241.226 733.64,242.436 733.697,243.646ZM733.338,1016.39C734.429,1011.55 734.132,980.077 732.924,971.181C732.414,972.034 731.902,972.502 731.88,972.991C731.769,975.532 731.733,978.08 731.762,980.624C731.824,986.177 732.435,991.713 731.745,997.288C731.397,1000.1 731.733,1003 731.81,1005.86C731.831,1006.64 732.326,1007.52 732.101,1008.2C731.114,1011.17 732.851,1013.71 733.338,1016.39ZM732.519,1023.59C731.441,1028.47 731.578,1032.95 732.256,1037.35C732.554,1039.28 732.725,1041.12 732.333,1042.99C731.57,1046.64 731.606,1050.28 732.044,1053.95C732.305,1056.15 732.96,1058.42 732.623,1060.54C732.135,1063.6 732.553,1066.58 732.655,1069.58C732.848,1075.31 733.15,1081.04 733.361,1086.76C733.465,1089.58 733.316,1092.41 733.762,1095.21C734.429,1090.97 734.19,1028.58 733.621,1024.59C733.589,1024.37 733.2,1024.19 732.519,1023.59ZM735.328,299.636C734.785,300.556 734.192,301.446 733.744,302.405C733.658,302.589 734.146,303.026 734.368,303.345C734.586,303.167 734.965,303.011 734.995,302.806C735.153,301.757 735.221,300.696 735.32,299.636C735.266,294.996 735.211,290.356 735.157,285.706C733.69,285.766 733.461,286.546 733.57,287.356C734.031,290.786 734.388,294.206 733.691,297.666C733.451,298.846 734.335,299.326 735.328,299.636ZM741.082,1337.4C740.202,1336.8 738.447,1336.92 739.327,1334.97C739.901,1333.7 739.067,1332.91 737.7,1332.54C737.476,1333.83 737.341,1335.1 737.014,1336.31C736.815,1337.05 736.32,1337.72 735.957,1338.42C735.645,1338.16 735.334,1337.91 735.023,1337.65C734.179,1339.67 734.179,1339.67 731.521,1340.54C731.487,1338.55 731.168,1336.61 731.494,1334.79C731.919,1332.41 731.9,1330.01 732.269,1327.67C732.645,1325.28 732.343,1322.94 732.498,1320.61C732.637,1318.52 734.619,1316.67 733.958,1314.27C736.104,1310.01 734.837,1305.49 735.002,1301.08C735.03,1300.31 734.733,1299.53 734.6,1298.83C733.398,1298.37 733.717,1299.55 733.203,1299.74C732.163,1297.58 732.033,1297.38 732.824,1296.14C735.165,1292.45 735.789,1288.49 735.346,1284.23C735.151,1282.35 735.577,1280.42 735.498,1278.53C735.191,1271.2 735.493,1263.87 735.306,1256.54C735.189,1251.93 735.111,1247.31 734.993,1241.61C734.716,1243.35 734.87,1244.37 734.446,1244.71C732.485,1246.25 732.953,1248.41 732.891,1250.3C732.6,1259.25 732.485,1268.2 732.346,1277.15C732.334,1277.93 732.529,1278.74 732.761,1279.49C733.293,1281.23 733.644,1282.9 732.232,1284.45C732.055,1284.64 731.956,1285.21 732.073,1285.3C734.352,1287.07 732.565,1289.18 732.508,1291.08C732.453,1292.92 732.925,1294.98 731.404,1296.58C731.331,1299.45 731.148,1302.32 731.207,1305.18C731.363,1312.85 731.63,1320.51 731.825,1328.17C731.837,1328.62 731.608,1329.08 731.394,1329.92C729.937,1328.58 729.863,1327.07 729.804,1325.6C729.647,1321.6 729.471,1317.61 729.441,1313.62C729.386,1306.11 729.453,1298.6 729.424,1291.08C729.377,1278.78 729.295,1266.47 729.227,1254.16C729.224,1253.57 729.227,1252.98 728.643,1252.33C728.484,1253.27 728.325,1254.22 728.166,1255.17C728.012,1255.15 727.859,1255.14 727.705,1255.12C728.135,1250.93 728.623,1246.74 728.966,1242.55C729.116,1240.71 729.821,1238.74 728.129,1237.1C727.853,1236.83 727.727,1235.99 727.938,1235.75C729.538,1233.93 728.507,1231.82 728.761,1229.87C729.029,1227.81 729.412,1225.77 729.707,1223.72C730.002,1221.67 730.072,1219.69 729.606,1217.57C729.032,1214.96 729.122,1212.21 729.023,1209.51C729.002,1208.92 729.315,1208.28 729.62,1207.74C730.526,1206.12 730.345,1204.86 728.948,1203.47C728.263,1202.79 727.998,1201.42 728.051,1200.39C728.157,1198.33 728.442,1196.24 728.96,1194.24C729.963,1190.36 729.898,1186.42 729.877,1182.48C729.866,1180.42 729.92,1178.31 728.463,1176.55C728.272,1176.32 728.118,1175.96 728.134,1175.68C728.281,1172.99 728.074,1170.21 728.74,1167.65C729.652,1164.14 729.396,1160.68 729.338,1157.18C729.306,1155.28 729.333,1153.37 729.346,1151.47C729.349,1150.99 729.491,1150.5 729.415,1150.04C728.495,1144.48 729.538,1138.92 729.368,1133.36C729.201,1127.93 729.309,1122.49 729.251,1117.05C729.242,1116.11 729.298,1115 728.83,1114.26C727.416,1112.03 727.694,1109.67 727.786,1107.28C727.841,1105.87 727.694,1104.44 727.657,1103.02C727.641,1102.39 727.469,1101.67 727.723,1101.15C728.504,1099.56 729.408,1098.05 728.32,1096.26C730.405,1092.2 728.488,1088.2 728.259,1084.15C727.972,1079.07 728.425,1073.95 728.62,1068.86C728.766,1065.04 729.495,1061.25 729,1057.4C728.717,1055.19 728.735,1053 727.41,1050.99C726.849,1050.14 726.51,1048.72 726.834,1047.83C727.956,1044.72 727.039,1041.54 727.486,1038.43C727.548,1038 727.461,1037.36 727.171,1037.11C726.064,1036.16 726.44,1035.12 726.709,1034.02C727.277,1031.7 728.076,1029.4 726.99,1027C726.809,1026.6 726.754,1025.84 726.997,1025.62C728.319,1024.44 727.679,1023.1 727.772,1021.71C727.877,1020.13 728.17,1018.78 726.984,1017.53C727.118,1015.02 727.251,1012.51 727.385,1010.01L727.268,1010.1C728.504,1008.6 728.678,1006.87 728.033,1005.17C726.883,1002.14 726.6,999.106 727.37,995.959C727.51,995.387 727.611,994.607 727.326,994.171C726.059,992.23 726.675,990.137 726.642,988.109C726.561,983.165 726.655,978.217 726.46,973.278C726.392,971.569 725.68,969.884 725.261,968.188C722.174,967.338 723.426,964.871 723.364,963.037C723.117,955.718 722.694,948.381 722.996,941.077C723.214,935.826 722.494,930.639 722.701,925.417C722.776,923.508 722.626,921.535 723.715,919.831C724.908,917.963 724.836,915.881 725.078,913.83C725.238,912.473 725.248,911.337 723.764,910.575C723.326,910.349 723.227,909.535 722.926,909.016C721.895,907.236 725.259,906.245 723.786,904.381C722.481,902.731 723.298,901.241 723.869,899.515C724.383,897.959 724.001,896.102 723.909,894.383C723.619,888.992 723.159,883.606 723.004,878.212C722.913,875.041 723.271,871.858 723.436,868.68C723.478,867.886 723.769,867.044 723.583,866.31C722.655,862.647 723.657,859.05 723.778,855.423C723.917,851.293 723.821,847.155 723.781,843.022C723.764,841.299 723.594,839.579 723.563,837.856C723.551,837.236 723.647,836.582 723.854,835.997C724.948,832.912 724.898,832.932 724.347,830.473C723.503,826.699 723.264,822.79 724.103,819.087C724.653,816.657 723.857,814.364 724.39,812.042C724.927,809.703 724.537,807.349 724.364,805.003C724.317,804.369 724.265,803.733 724.26,803.098C724.199,794.834 724.157,786.569 724.08,778.305C724.065,776.758 724.351,775.252 724.172,773.648C723.978,771.911 724.031,769.859 725.945,768.511C726.413,768.182 726.305,767.081 726.471,766.289C725.534,766.004 724.806,765.782 723.976,765.53L723.976,759.833C724.796,761.273 725.175,761.938 725.749,762.947C726.493,761.196 726.244,759.749 725.789,758.293L725.661,758.409C726.331,756.826 726.613,755.233 725.782,753.613L725.901,753.714C725.781,752.807 725.934,751.739 725.489,751.022C724.166,748.896 724.077,748.952 725.256,747.177C725.428,746.917 725.56,746.631 725.711,746.357C725.415,745.46 723.542,745.104 724.755,743.671C724.927,743.468 725.016,742.966 724.882,742.789C723.603,741.101 723.743,738.979 724.062,737.32C725.252,731.126 723.435,725.055 723.733,718.926C723.786,717.816 723.725,716.701 723.762,715.589C723.778,715.123 723.781,714.335 724.011,714.248C725.902,713.537 725.902,711.892 726.078,710.404C726.264,708.834 726.258,707.24 726.29,705.656C726.322,704.071 726.297,702.485 726.297,700.415C725.341,701.385 724.727,702.01 723.8,702.951C723.696,700.807 723.541,698.948 723.53,697.089C723.514,694.386 723.608,691.683 723.642,688.981C723.654,687.986 723.673,687.077 725.081,686.949C725.337,686.926 725.71,686.201 725.715,685.795C725.757,682.778 725.729,679.76 725.69,676.743C725.686,676.458 725.542,676.049 725.322,675.914C722.803,674.367 723.383,672.713 724.875,670.768C725.383,670.106 725.379,668.947 725.299,668.041C725.255,667.534 724.577,667.079 724.185,666.601L724.267,666.713C725.47,666.284 726.177,665.58 725.694,664.238C725.484,663.651 725.337,663.023 725.017,662.497C723.509,660.022 723.758,657.646 725.334,655.315C725.588,654.939 725.868,654.579 726.123,654.215C725.752,654.027 725.187,653.867 726.003,653.511C725.999,653.768 725.995,654.025 725.992,654.282C725.37,654.1 724.748,653.917 724.106,653.729C723.883,652.267 723.674,650.898 723.447,649.405C724.376,648.776 725.38,648.096 726.766,647.159C725.495,646.881 724.762,646.721 724.033,646.561C723.718,644.064 723.665,641.602 724.169,639.106C724.448,637.727 724.451,636.232 724.245,634.836C723.742,631.444 723.971,628.186 725.226,624.956C725.54,624.15 725.615,622.884 725.167,622.249C724.217,620.902 724.36,619.589 724.439,618.14C724.543,616.242 724.414,614.332 724.401,612.426C724.394,611.44 725.136,610.407 725.617,610.711C726.089,611.009 726.624,611.656 726.622,612.148C726.607,615.969 726.458,619.789 726.386,623.61C726.377,624.056 726.588,624.505 726.753,625.184C727.493,621.206 727.618,590.538 726.778,578.983C726.778,584.232 726.767,589.48 726.785,594.729C726.791,596.177 726.882,597.624 725.579,598.686C725.309,598.501 724.861,598.3 724.883,598.195C725.596,594.922 724.108,591.571 725.262,588.315C725.356,588.047 725.114,587.684 725.152,587.379C725.44,585.03 723.09,583.244 723.909,580.639C724.558,578.573 724.471,576.264 724.539,574.058C724.688,569.287 725.08,564.509 724.363,559.742C724.247,558.969 724.306,558.158 724.379,557.373C725.043,550.223 724.721,543.042 725.081,535.891C725.328,530.974 724.39,526.067 725.343,521.136C725.787,518.834 725.59,516.355 725.324,513.995C724.605,507.614 725.72,501.272 725.548,494.906C725.403,489.507 725.396,484.104 725.324,478.702C725.303,477.115 725.164,475.522 725.265,473.943C725.767,466.14 725.155,458.341 725.254,450.541C723.907,445.506 725.304,440.378 724.719,435.315C724.665,434.859 724.665,434.207 724.942,433.933C726.951,431.952 725.651,429.766 725.543,427.612C725.266,422.107 723.958,416.618 725.395,411.068C725.737,409.746 725.655,408.135 725.192,406.853C724.668,405.402 724.759,404.016 724.866,402.626C725.101,399.563 725.179,399.569 723.981,397.207C725.086,395.165 725.458,392.896 725.416,390.432C725.302,383.746 725.514,377.057 725.47,370.37C725.457,368.328 725.607,366.237 724.667,364.251C724.373,363.63 724.555,362.714 724.726,361.979C725.533,358.512 725.734,355.122 724.344,351.695C723.893,350.584 724.143,349.205 724.073,347.948L724.047,348.011C726.121,345.092 725.814,341.804 724.637,338.895C723.724,336.639 723.542,334.593 724.033,332.406C725.866,324.238 725.744,315.999 725.094,307.739C724.995,306.485 724.593,305.254 724.51,304.001C724.409,302.466 724.234,300.866 724.553,299.386C725.475,295.126 725.414,290.826 725.457,286.526C725.509,281.256 725.442,275.986 725.362,270.706C725.343,269.476 725.266,268.296 724.829,267.026C724.388,265.747 725.348,264.076 725.201,262.627C725.07,261.326 724.097,260.137 723.831,258.836C723.706,258.216 724.443,257.476 724.654,256.757C724.913,255.867 725.342,254.867 725.137,254.046C724.824,252.796 723.22,251.716 724.934,250.356C724.241,248.996 724.739,247.616 724.749,246.216C724.783,241.456 724.638,236.686 724.451,231.926C724.289,227.796 723.582,223.656 723.836,219.556C724.123,214.916 723.542,210.326 723.756,205.706C723.934,201.886 723.816,198.046 723.848,194.216C723.857,193.106 723.9,191.996 723.98,190.886C724.151,188.496 724.518,186.116 724.52,183.736C724.524,173.996 724.614,164.256 724.288,154.526C724.086,148.476 724.446,142.476 724.894,136.466C725.023,134.726 724.816,132.946 724.587,131.216C724.007,126.806 723.29,122.426 722.702,118.016C722.429,115.976 722.328,113.906 722.149,111.856L722.135,111.936C723.984,110.676 724.183,108.836 724.197,106.846C724.243,100.136 724.398,93.436 724.461,86.736C724.491,83.536 724.346,80.336 724.389,77.146C724.52,67.396 724.763,57.646 724.822,47.906C724.835,45.696 724.279,43.496 723.984,41.296C723.544,38.006 723.102,34.726 722.627,31.186C723.055,31.496 723.225,31.556 723.283,31.666C723.35,31.806 723.267,32.006 723.337,32.136C723.529,32.486 723.768,32.816 724.481,33.906C724.369,30.176 726.399,28.306 728.251,26.226C729.381,27.196 729.61,28.606 729.59,30.136C729.568,31.866 729.578,33.606 730.238,35.206C731.558,35.116 731.242,34.366 731.176,33.836C731.003,32.416 730.769,31.006 730.537,29.606C730.312,28.246 730.575,27.076 731.814,26.246C732.607,26.856 733.668,27.406 734.081,28.066C734.591,28.896 734.281,30.206 734.295,31.316C734.304,31.946 734.171,32.596 734.241,33.226C735.612,45.476 735.166,57.796 735.61,70.086C735.968,79.986 735.655,89.906 735.654,99.826C735.654,101.586 735.741,103.346 735.757,105.106C735.766,106.066 735.791,106.946 736.578,107.746C738.175,109.356 738.24,111.426 738.317,113.546C738.976,131.746 739.12,149.956 739.192,168.166C739.279,189.756 739.507,211.356 739.6,232.946C739.611,235.476 739.136,238.016 738.924,240.546C738.711,243.096 738.397,245.636 738.385,248.176C738.346,256.646 738.365,265.117 738.483,273.586C738.528,276.776 739.003,279.956 739.1,283.146C739.188,286.016 739.095,288.896 738.961,291.756C738.651,298.396 738.268,305.021 737.729,311.651C737.517,295.526 737.305,279.406 737.093,263.276C737.003,263.267 736.913,263.267 736.823,263.257C736.707,264.186 736.49,265.117 736.491,266.046C736.503,276.747 736.577,287.446 736.577,298.136C736.577,308.044 736.503,317.95 736.469,327.856C736.451,332.958 736.431,338.061 736.457,343.163C736.463,344.348 736.654,345.533 737.265,346.72C737.454,345.014 737.643,343.308 737.852,341.422C738.677,342.783 739.009,344.163 739.007,345.652C739,350.245 739.005,354.839 739.005,360.15C738.052,358.931 737.525,358.257 736.978,357.556C736.777,357.801 736.505,357.99 736.449,358.227C736.306,358.841 736.168,359.48 736.187,360.104C736.302,363.843 736.463,367.581 736.621,371.644C738.831,369.645 737.535,367.407 737.964,365.504C739.137,365.296 738.985,366.125 738.992,366.62C739.099,374.592 739.171,382.564 738.753,390.582C738.594,389.078 738.435,387.575 738.249,385.825C737.471,385.622 736.723,385.427 735.62,385.139C736.223,387.904 736.757,390.35 737.362,393.123C735.726,394.845 735.817,397.093 736.219,399.585C736.621,402.081 736.267,404.683 736.431,407.227C736.805,413.047 737.347,418.86 736.267,424.664C737.41,427.763 735.601,430.961 736.63,434.091C737.079,435.455 735.974,436.677 736.08,438.222C736.505,444.383 736.455,450.575 736.577,456.756C736.612,458.51 736.685,460.266 736.658,462.02C736.591,466.321 736.276,470.628 736.423,474.921C736.691,482.74 736.377,490.544 735.996,498.342C735.871,500.879 735.864,503.393 735.996,505.909C736.465,514.852 736.476,523.79 735.936,532.73C735.821,534.642 735.913,536.565 735.89,538.483C735.761,549.019 735.567,559.554 735.514,570.091C735.475,577.75 735.484,585.414 735.733,593.068C735.884,597.666 735.767,602.309 736.199,606.849C736.926,614.498 736.441,622.132 736.76,629.766C736.912,633.409 736.399,637.079 737.36,640.682C736.343,643.796 736.635,647.001 736.837,650.16C737.541,661.16 736.474,672.155 736.873,683.148C736.959,685.524 737.331,687.906 737.775,690.248C738.08,691.855 738.143,693.186 737.287,694.782C736.599,696.064 736.741,697.881 736.86,699.435C737.498,707.724 737.367,716.013 737.046,724.306C736.905,727.948 737.025,731.576 737.245,735.219C737.436,738.372 736.966,741.556 736.958,744.727C736.931,755.427 737.008,766.127 736.978,776.827C736.971,779.219 736.567,781.609 736.568,784C736.571,790.704 736.733,797.408 736.744,804.112C736.749,806.983 736.504,809.854 736.433,812.726C736.367,815.434 736.153,818.151 737.295,820.764C737.595,821.451 737.612,822.36 737.462,823.111C736.38,828.521 737.157,833.951 737.202,839.37C737.251,845.43 737.425,851.489 737.432,857.548C737.435,860.093 737.028,862.639 737.019,865.184C737,870.437 737.213,875.69 737.166,880.942C737.098,888.45 736.853,895.956 736.738,903.463C736.638,910.014 736.628,916.566 736.553,923.117C736.476,929.982 736.219,936.849 736.315,943.712C736.422,951.377 736.91,959.035 737.077,966.7C737.134,969.314 738.008,972.129 735.89,974.462C735.829,977.486 735.733,980.51 735.714,983.535C735.679,988.958 735.719,994.382 735.673,999.806C735.618,1006.36 734.898,1012.96 735.564,1019.44C736.485,1028.39 736.279,1037.32 736.468,1046.26C736.701,1057.29 736.59,1068.32 736.64,1079.36C736.66,1083.83 736.746,1088.31 736.733,1092.78C736.727,1094.88 737.548,1096.91 737.594,1098.88C737.639,1100.81 736.701,1102.84 736.71,1104.94C736.749,1114.21 736.66,1123.48 736.771,1132.75C736.828,1137.53 737.353,1142.31 737.404,1147.1C737.473,1153.47 737.193,1159.85 737.231,1166.23C737.277,1173.89 737.554,1181.56 737.63,1189.22C737.689,1195.13 737.577,1201.04 737.567,1206.95C737.557,1212.84 737.552,1218.73 738.456,1224.57C737.177,1226.92 739.361,1228.99 739.025,1231.35C738.691,1233.69 739.003,1236.11 738.928,1238.49C738.853,1240.88 738.593,1243.26 738.521,1245.65C738.454,1247.88 738.597,1250.12 738.524,1252.35C738.383,1256.65 738.021,1260.95 737.994,1265.25C737.954,1271.81 738.129,1278.36 738.199,1284.91C738.254,1290.02 738.305,1295.13 738.315,1300.25C738.317,1301.19 738.118,1302.14 738,1303.08C737.883,1304.02 737.641,1304.95 737.645,1305.89C737.671,1311.93 737.509,1317.94 738.994,1323.93C739.945,1327.78 739.832,1331.86 740.266,1335.83C740.326,1336.38 740.792,1336.88 741.07,1337.4L741.082,1337.4Z" style="fill:rgb(35,31,32);fill-rule:nonzero;"/>
        </g>
    </g>
</svg>
