<?xml version="1.0" encoding="UTF-8" standalone="no"?>
<!DOCTYPE svg PUBLIC "-//W3C//DTD SVG 1.1//EN" "http://www.w3.org/Graphics/SVG/1.1/DTD/svg11.dtd">
<svg width="100%" height="100%" viewBox="0 0 3473 30" version="1.1" xmlns="http://www.w3.org/2000/svg" xmlns:xlink="http://www.w3.org/1999/xlink" xml:space="preserve" xmlns:serif="http://www.serif.com/" style="fill-rule:evenodd;clip-rule:evenodd;stroke-linejoin:round;stroke-miterlimit:2;">
    <g transform="matrix(1,0,0,1,-17.7165,-832.314)">
        <g transform="matrix(2.02049,0,0,2.02049,17.7165,696.561)">
            <path d="M1717.09,69.847C1713.39,68.376 1709.39,66.613 1704.84,67.369C1697.13,68.652 1689.41,68.703 1681.57,68.474C1670.4,68.147 1659.21,67.963 1648.04,67.581C1638.02,67.238 1628.11,67.504 1618.3,68.808C1607.81,64.687 1596.41,72.464 1585.95,67.932C1565.96,70.684 1545.85,68.292 1525.8,68.366C1511.34,68.419 1496.82,67.035 1482.72,70.41C1479.92,71.078 1476.03,70.644 1472.9,70.15C1468.59,69.472 1464.58,68.833 1459.91,69.171C1452.2,69.727 1444.36,69.856 1436.58,69.783C1424.28,69.667 1411.99,69.142 1399.69,68.978C1393.01,68.888 1385.67,68.189 1379.8,69.547C1371.59,71.444 1364.24,67.419 1356.96,69.368C1348.36,71.672 1339.61,71.465 1330.64,71.222C1293.76,70.225 1256.87,69.283 1219.98,68.39C1213.29,68.228 1205.98,67.365 1199.98,68.599C1183.42,72.003 1166.74,70.469 1150.1,70.229C1126.62,69.89 1103.15,69.076 1079.67,68.615C1066.33,68.353 1053.05,67.528 1039.81,70.344C1033.83,71.618 1026.55,70.953 1019.88,70.837C994.25,70.393 968.65,68.5 942.978,70.682C939.922,70.942 936.5,70.124 933.381,69.547C928.949,68.726 924.44,68.473 920.272,69.563C911.729,71.797 902.875,71.669 893.892,71.439C865.948,70.721 838.003,69.989 810.049,69.431C802.276,69.277 794.024,68.815 786.787,70.089C776.779,71.851 766.937,71.854 756.905,71.663C735.661,71.259 714.424,70.687 693.178,70.266C684.253,70.09 675.382,69.939 666.659,71.838C662.616,72.719 657.794,73.007 653.521,72.674C648.079,72.25 642.871,70.266 637.495,70.158C630.975,70.027 624.405,71.259 617.814,71.672C615.703,71.805 613.468,71.175 611.274,70.952C608.036,70.623 604.55,69.742 601.575,70.148C585.955,72.28 570.347,70.501 554.745,70.5C539.189,70.5 523.474,68.729 508.24,72.349C505.291,73.05 501.593,72.841 498.268,72.738C483.789,72.291 469.176,72.872 454.922,70.585C451.838,70.091 448.231,69.936 445.166,70.375C436.26,71.649 427.361,71.106 418.443,70.891C402.793,70.514 387.149,70.03 371.498,69.712C359.25,69.464 347.107,68.959 334.956,71.338C328.855,72.532 321.676,72.014 315.001,71.893C290.396,71.449 265.805,70.767 241.2,70.359C234.56,70.249 227.523,70.076 221.317,71.199C211.38,72.999 201.49,73.036 191.438,72.819C180.26,72.577 169.093,72.136 157.915,71.9C147.885,71.688 137.869,71.186 128.123,73.632C125.481,74.294 121.233,73.977 118.598,73.137C107.996,69.761 97.002,69.627 86.047,71.625C77.244,73.231 68.482,73.364 59.522,73.155C40.518,72.71 21.514,72.254 2.506,71.867C1.669,71.85 0.834,71.835 0,71.82L0,80.241C0.448,80.252 0.896,80.264 1.344,80.274C15.88,80.575 30.409,81.051 44.95,81.226C59.398,81.401 73.822,82.471 88.193,79.628C94.259,78.428 101.494,79.155 108.186,79.279C133.901,79.756 159.612,80.384 185.329,80.872C197.57,81.104 209.706,81.763 221.878,79.293C227.917,78.068 235.154,78.736 241.832,78.864C272.024,79.445 302.21,80.174 332.403,80.764C339.096,80.895 346.349,81.647 352.399,80.437C366.771,77.564 381.22,78.593 395.655,78.817C422.498,79.233 449.321,80.052 476.16,80.547C482.808,80.669 489.943,81.01 496.052,79.807C506.017,77.846 515.898,78.074 525.923,78.284C556.114,78.915 586.296,79.682 616.489,80.271C623.149,80.401 630.324,80.875 636.416,79.671C647.474,77.487 658.454,77.827 669.615,78.072C694.213,78.613 718.808,79.178 743.41,79.681C755.654,79.931 767.835,80.723 779.93,78.056C784.883,76.964 790.979,77.509 796.54,77.615C821.142,78.084 845.733,78.711 870.334,79.184C882.577,79.419 894.779,80.103 906.864,77.54C911.875,76.477 917.894,76.913 923.444,76.976C936.866,77.13 950.28,77.653 963.701,77.68C983.651,77.721 1003.83,80.57 1023.47,76.196C1037.73,78.88 1052.07,75.753 1066.51,76.439C1093.25,77.71 1120.15,77.876 1146.98,78.39C1153.66,78.517 1160.95,79.192 1166.92,77.905C1179.09,75.285 1191.21,76.09 1203.44,76.33C1230.28,76.858 1257.11,77.483 1283.95,78.045C1295.09,78.278 1306.08,78.718 1317.12,76.423C1323.19,75.16 1330.37,75.47 1337.02,75.578C1353.79,75.851 1370.56,76.399 1387.32,76.86C1402.89,77.287 1418.4,77.704 1433.94,76.144C1450.49,74.484 1467.23,75.052 1483.93,75.526C1506.28,76.161 1528.64,76.685 1551,77.116C1557.67,77.244 1564.88,77.801 1570.94,76.582C1583.1,74.14 1595.21,74.679 1607.48,74.965C1624.24,75.354 1641.01,75.761 1657.78,76.099C1686.24,76.673 1686.24,76.659 1717.3,72.756C1717.89,72.681 1718.69,71.889 1718.61,71.489C1718.49,70.903 1717.88,70.164 1717.09,69.847Z" style="fill-rule:nonzero;"/>
        </g>
    </g>
</svg>
