<?xml version="1.0" encoding="UTF-8" standalone="no"?>
<!DOCTYPE svg PUBLIC "-//W3C//DTD SVG 1.1//EN" "http://www.w3.org/Graphics/SVG/1.1/DTD/svg11.dtd">
<svg width="100%" height="100%" viewBox="0 0 3508 12" version="1.1" xmlns="http://www.w3.org/2000/svg" xmlns:xlink="http://www.w3.org/1999/xlink" xml:space="preserve" xmlns:serif="http://www.serif.com/" style="fill-rule:evenodd;clip-rule:evenodd;stroke-linejoin:round;stroke-miterlimit:2;">
    <g transform="matrix(1,0,0,1,0,-352.529)">
        <g transform="matrix(2.39083e-17,0.775521,-2.969,1.7564e-16,3407.9,-153.639)">
            <path d="M655.642,153.366L655.988,153.426L655.866,153.006L655.642,153.366ZM655.997,274.716C655.951,274.606 655.906,274.497 655.86,274.387C655.78,274.466 655.649,274.546 655.632,274.646C655.615,274.747 655.71,274.856 655.756,274.966C655.836,274.887 655.916,274.806 655.997,274.716ZM662.987,464.434L662.842,464.156L662.728,464.445L662.987,464.434ZM662.81,443.608L663.007,443.311L662.727,443.251L662.81,443.608ZM659.93,962.348L659.844,961.951L659.725,962.256L659.93,962.348ZM663.908,870.104C663.755,870.347 663.481,870.592 663.483,870.833C663.486,871.082 663.758,871.328 663.912,871.575C664.067,871.331 664.344,871.086 664.343,870.842C664.343,870.596 664.066,870.35 663.908,870.104ZM665.977,864.353C665.882,864.118 665.788,863.882 665.693,863.646C665.585,863.723 665.39,863.795 665.385,863.877C665.371,864.139 665.427,864.404 665.456,864.668C665.629,864.563 665.803,864.459 665.977,864.353ZM662.906,478.256C662.831,478.338 662.705,478.416 662.697,478.505C662.688,478.603 662.787,478.711 662.839,478.814C662.915,478.729 663.043,478.65 663.053,478.558C663.064,478.464 662.96,478.357 662.906,478.256ZM656.012,288.466C655.957,288.326 655.902,288.196 655.848,288.066C655.76,288.176 655.615,288.276 655.602,288.396C655.588,288.516 655.702,288.656 655.761,288.786C655.844,288.676 655.928,288.566 656.012,288.466ZM654.721,716.623L654.926,716.576L654.813,716.337L654.721,716.623ZM664.67,720.302L664.487,720.602L664.754,720.659L664.67,720.302ZM664.174,811.61C664.098,811.506 664.021,811.402 663.945,811.298C663.87,811.401 663.738,811.503 663.736,811.607C663.734,811.71 663.862,811.816 663.933,811.921C664.013,811.817 664.094,811.714 664.174,811.61ZM655.881,218.946L655.702,219.306L655.94,219.366L655.881,218.946ZM655.914,260.196C655.9,260.066 655.886,259.936 655.873,259.816C655.815,259.916 655.725,260.017 655.708,260.127C655.689,260.247 655.74,260.377 655.76,260.497C655.812,260.396 655.863,260.296 655.914,260.196ZM663.102,555.847C663.044,555.712 662.985,555.577 662.926,555.442C662.844,555.549 662.671,555.687 662.696,555.759C662.763,555.949 662.915,556.11 663.034,556.283C663.057,556.138 663.079,555.992 663.102,555.847ZM665.72,860.095C666.216,859.582 666.596,859.301 666.797,858.928C666.883,858.77 666.553,858.186 666.481,858.197C666.091,858.259 665.488,858.37 665.403,858.612C665.283,858.952 665.552,859.421 665.72,860.095ZM655.927,883.332C655.902,883.191 655.877,883.05 655.851,882.909C655.794,882.992 655.695,883.072 655.691,883.157C655.683,883.296 655.738,883.439 655.767,883.58C655.82,883.497 655.874,883.414 655.927,883.332ZM662.746,484.465C662.919,484.459 663.092,484.453 663.265,484.448C663.219,483.76 663.173,483.073 663.127,482.386C663,482.394 662.873,482.402 662.746,482.41L662.746,484.465ZM665.593,783.151C664.634,782.555 664.285,782.337 663.935,782.12C663.786,782.375 663.48,782.657 663.523,782.876C663.593,783.234 663.881,783.818 664.095,783.826C664.483,783.839 664.883,783.498 665.593,783.151ZM655.509,308.456C655.712,308.44 655.914,308.425 656.117,308.41C656.044,307.667 655.971,306.925 655.898,306.183C655.768,306.196 655.639,306.209 655.509,306.222L655.509,308.456ZM656.433,329.241C655.85,327.223 656.614,325.89 655.326,324.276C655.326,325.758 655.299,326.825 655.348,327.888C655.358,328.099 655.659,328.296 656.433,329.241ZM659.995,1033.23C659.995,1030.95 660.023,1029.68 659.964,1028.41C659.956,1028.22 659.535,1028.06 659.304,1027.88C658.506,1029.85 658.506,1029.85 659.995,1033.23ZM663.644,723.808C663.501,724.868 663.09,725.972 663.263,726.981C663.798,730.103 662.311,733.296 663.682,736.363C663.293,742.581 663.616,748.792 663.752,755.009C663.873,760.59 663.599,766.179 663.568,771.764C663.555,774.278 663.71,776.793 663.786,779.216C665.09,779.714 665.656,779.003 665.714,778.232C665.93,775.376 666.27,772.487 666.032,769.654C665.7,765.714 664.889,761.839 665.374,757.828C665.679,755.307 665.452,752.723 665.416,750.167C665.319,743.3 665.208,736.432 665.077,729.565C665.041,727.68 665.147,725.77 663.644,723.808ZM655.935,930.494C656.261,929.977 656.941,929.392 656.853,928.953C656.46,926.981 657.404,924.923 656.054,922.937C655.497,922.118 656.242,920.51 656.276,919.258C656.345,916.716 656.323,914.172 656.356,911.63C656.402,908.13 656.454,904.631 656.524,901.132C656.569,898.895 656.556,896.706 655.847,894.502C654.505,890.325 654.339,885.929 654.932,881.681C655.316,878.93 655.917,876.201 655.916,873.411C655.916,871.514 655.725,869.618 655.636,867.721C655.599,866.924 655.535,866.119 655.607,865.328C656.446,856.08 656.168,846.813 656.13,837.551C656.129,837.291 655.944,837.031 655.604,836.142C655.404,838.601 655.254,840.462 655.102,842.322C655.036,842.326 654.97,842.33 654.903,842.333C654.827,841.258 654.722,840.183 654.681,839.106C654.632,837.828 654.602,836.547 654.631,835.269C654.667,833.732 654.203,832.126 655.772,830.852C656.238,830.474 656.145,829.35 656.16,828.565C656.204,826.183 656.176,823.8 656.176,821.473C655.907,821.372 655.743,821.254 655.671,821.294C655.544,821.363 655.446,821.518 655.386,821.657C655.259,821.948 655.165,822.253 654.804,823.255C654.548,791.612 654.298,760.667 654.047,729.641C654.248,729.959 654.48,730.328 655.014,731.174C655.015,727.785 655.527,724.85 654.213,721.924C653.717,720.82 653.812,719.425 653.806,718.162C653.736,702.487 653.722,686.811 653.642,671.136C653.576,658.181 653.427,645.227 653.339,632.272C653.121,600.282 652.794,568.292 652.747,536.302C652.712,512.632 653.131,488.961 653.184,465.289C653.211,453.455 652.854,441.621 652.709,429.786C652.652,425.163 652.699,420.538 652.699,416.055C653.683,414.774 654.683,414.91 655.774,415.653C655.908,415.428 656.162,415.202 656.155,414.984C656.056,411.965 656.47,408.903 655.406,405.957C655.3,405.663 655.229,405.308 655.293,405.011C656.094,401.25 655.674,397.436 655.891,393.652C656.028,391.256 656.406,388.921 655.424,386.6C655.205,386.084 655.144,385.219 655.444,384.833C656.46,383.528 656.189,382.078 656.161,380.678C656.121,378.611 656.427,376.332 655.636,374.538C654.623,372.24 656.883,370.596 656.156,368.546C655.949,367.961 656.246,367.137 655.927,366.67C654.433,364.479 654.987,362.037 654.902,359.695C654.817,357.309 655.416,355.001 655.872,352.652C656.485,349.49 656.969,346.101 655.251,342.861C654.632,341.694 654.886,340.05 654.881,338.623C654.814,316.548 654.768,294.476 654.721,272.396C654.647,237.206 654.582,202.016 654.5,166.826C654.451,146.196 654.41,125.556 654.309,104.926C654.129,68.296 653.907,31.666 653.699,-4.954C653.666,-10.694 653.808,-16.414 654.823,-22.764C656.021,-20.004 655.166,-17.724 655.954,-14.664C656.102,-17.274 656.079,-18.994 656.327,-20.684C656.604,-22.564 657.127,-24.414 657.562,-26.374C657.972,-27.004 659.278,-25.704 659.401,-26.994C659.553,-28.564 659.555,-30.164 659.624,-31.744C659.659,-32.544 659.661,-32.544 661.36,-33.674C662.466,-33.094 662.168,-32.044 662.169,-31.154C662.238,3.226 662.271,37.596 662.356,71.976C662.373,79.176 662.53,86.376 662.726,93.566C662.768,95.136 662.968,96.806 663.596,98.226C664.69,100.686 664.87,103.126 664.399,105.696C664.256,106.476 664.104,107.296 664.222,108.066C665.13,113.946 664.875,119.866 664.931,125.766C665.136,147.356 665.193,168.956 665.287,190.546C665.324,199.016 665.356,207.486 665.082,215.956C664.715,227.296 665.078,238.656 665.052,250.016C665.04,255.286 664.834,260.556 664.751,265.836C664.721,267.747 664.773,269.666 664.828,271.586C664.856,272.536 665.174,273.526 665.018,274.446C664.15,279.546 665.117,284.606 665.216,289.696C665.271,292.536 664.847,295.396 664.647,298.256C664.591,299.046 664.461,299.856 664.537,300.636C665.433,309.892 664.505,319.16 664.817,328.419C665.161,338.626 664.209,348.821 664.27,359.029C664.326,368.464 664.443,377.898 664.425,387.333C664.399,401.087 664.226,414.842 664.212,428.596C664.198,441.709 664.381,454.822 664.334,467.934C664.306,475.601 664.02,483.269 663.799,490.935C663.723,493.603 663.947,496.322 662.802,498.871C662.739,499.011 662.715,499.194 662.745,499.343C664.058,505.836 661.68,512.371 662.843,518.798C663.459,522.208 664.813,525.466 663.831,528.996C665.192,530.615 664.822,532.203 663.801,533.827C662.95,535.182 664.817,534.919 664.923,535.45C665.197,536.828 665.116,538.261 663.349,539.166C665.788,544.308 664.517,549.764 664.61,555.133C664.671,558.63 664.773,562.132 664.67,565.626C664.596,568.147 664.185,570.658 664.008,573.18C663.985,573.515 664.456,573.883 664.698,574.236L664.674,574.223C663.568,575.325 663.203,576.706 663.186,578.179C663.145,581.696 663.045,585.218 663.178,588.731C663.242,590.434 663.171,592.24 664.403,593.756C664.769,594.206 664.859,594.963 664.863,595.58C664.897,600.976 664.883,606.372 664.883,612.804C663.782,608.777 664.987,605.584 663.777,601.891C663.562,603.43 663.328,604.321 663.329,605.212C663.353,618.79 663.483,632.368 663.428,645.946C663.393,654.716 664.021,663.49 663.327,672.259C663.31,672.477 663.581,672.717 664.084,673.564L664.084,665.817C665.463,668.488 665.331,670.265 665.303,671.95C665.229,676.255 664.978,680.558 664.803,684.861C664.784,685.337 664.954,685.88 664.774,686.282C662.65,691.04 663.83,696.057 663.495,700.953C663.267,704.293 662.935,707.628 662.76,710.971C662.661,712.859 662.742,714.76 662.852,716.648C662.87,716.947 663.499,717.462 663.795,717.43C664.16,717.391 664.613,716.945 664.783,716.57C665.459,715.073 664.295,713.814 664.111,712.42C663.98,711.426 664.554,710.986 665.641,710.89C665.852,711.237 666.27,711.614 666.292,712.011C666.693,719.183 667.199,726.344 666.583,733.546C666.287,737.011 666.712,740.532 666.762,744.029C666.862,750.89 666.909,757.752 667.014,764.613C667.088,769.4 667.222,774.185 667.33,778.972C667.352,779.93 667.408,780.886 667.404,781.844C667.363,791.747 667.285,801.65 667.282,811.553C667.281,814.503 668.175,817.494 666.585,820.582C666.466,815.743 666.115,811.125 666.297,806.526C666.558,799.951 666.057,793.447 665.159,786.953C665.108,786.581 664.687,786.24 664.395,785.923C664.326,785.849 664.08,785.927 663.601,785.952C663.554,789.08 663.463,792.237 663.469,795.395C663.476,798.749 663.797,802.119 663.549,805.452C663.396,807.51 665.515,808.76 664.965,810.868C664.694,811.905 664.993,813 664.053,813.956C663.648,814.367 663.808,815.381 663.853,816.113C663.92,817.2 664.263,818.286 664.214,819.36C664.149,820.757 663.496,822.146 664.661,823.451C664.865,823.679 664.727,824.436 664.482,824.759C663.673,825.826 663.885,826.634 664.554,827.755C665.081,828.636 665.012,829.91 665.027,831.011C665.111,836.915 665.131,842.82 665.194,848.723C665.203,849.511 665.331,850.298 665.398,851.018C666.116,851.278 666.687,851.485 667.499,851.779C668.617,860.591 667.086,869.426 667.239,878.513C665.059,877.583 666.915,875.497 665.115,874.706C664.89,875.122 664.549,875.49 664.495,875.894C664.174,878.26 663.675,880.635 663.692,883.004C663.74,890.02 664.045,897.034 664.165,904.05C664.258,909.465 664.565,914.909 664.145,920.293C663.76,925.224 663.366,930.145 663.386,935.085C663.413,941.791 663.608,948.496 663.672,955.202C663.703,958.547 663.569,961.894 663.566,965.24C663.555,978.814 663.578,992.389 663.555,1005.96C663.55,1008.68 663.328,1011.39 663.325,1014.11C663.317,1021.29 663.416,1028.47 663.392,1035.64C663.375,1041.23 663.19,1046.81 663.167,1052.39C663.143,1058.13 663.326,1063.88 663.224,1069.62C663.167,1072.8 662.714,1075.97 662.433,1079.15C662.391,1079.63 662.248,1080.1 662.263,1080.57C662.512,1088.37 662.792,1096.16 663.027,1103.95C663.06,1105.05 662.914,1106.15 662.808,1107.25C662.656,1108.83 662.195,1110.42 662.353,1111.96C662.582,1114.19 662.823,1116.3 662.125,1118.54C661.737,1119.79 662.215,1121.29 662.089,1122.69C661.341,1121.58 661.765,1120.31 661.609,1119.13C661.463,1118.02 661.374,1116.9 661.214,1115.8C661.031,1114.54 660.642,1113.28 660.635,1112.03C660.628,1110.93 661.129,1109.84 661.221,1108.73C661.341,1107.3 661.329,1105.86 661.269,1104.42C661.244,1103.81 661.065,1103.14 660.739,1102.63C660.543,1102.32 659.888,1102.06 659.518,1102.14C659.193,1102.21 658.699,1102.82 658.755,1103.11C659.892,1108.99 659.207,1114.84 658.6,1120.7C658.504,1121.63 658.893,1122.61 658.81,1123.54C658.442,1127.65 659.273,1131.73 658.552,1135.91C657.883,1139.78 658.409,1143.85 658.071,1147.83C657.021,1117.6 657.813,1087.36 658.042,1057.13C658.042,1061.43 658.04,1065.74 658.043,1070.05C658.044,1070.85 657.843,1071.72 658.108,1072.43C659.571,1076.32 658.844,1080.24 658.569,1084.19C658.337,1087.52 658.383,1090.88 658.466,1094.23C658.487,1095.05 659.133,1095.85 659.717,1097.18C660.625,1093.46 661.226,1090.48 660.437,1087.24C659.881,1084.96 660.252,1082.47 660.193,1080.07C660.123,1077.2 659.967,1074.33 659.975,1071.47C659.987,1067.32 660.154,1063.17 660.183,1059.03C660.23,1052.31 660.225,1045.6 660.227,1038.88C660.227,1037.82 660.271,1036.72 659.224,1035.6C657.008,1039.85 659.54,1043.97 658.529,1048.38C658.073,1047.75 657.689,1047.46 657.679,1047.16C657.448,1040.14 657.279,1033.12 657.047,1026.1C656.969,1023.72 656.752,1021.35 656.595,1018.97C656.563,1018.49 656.392,1017.99 656.491,1017.54C657.515,1012.95 656.648,1008.35 656.569,1003.75C656.509,1000.24 656.665,996.721 656.674,993.203C656.688,988.088 656.636,982.973 656.654,977.858C656.661,975.947 656.82,974.037 656.852,972.126C657.002,963.353 657.202,954.579 657.219,945.805C657.223,943.653 657.853,941.282 656.081,939.381L656.174,939.492C657.299,936.457 657.935,933.433 655.962,930.467L655.935,930.494Z" style="fill:rgb(35,31,32);fill-rule:nonzero;"/>
        </g>
    </g>
</svg>
