<?xml version="1.0" encoding="UTF-8"?>
<svg id="Ebene_2" xmlns="http://www.w3.org/2000/svg" viewBox="0 0 235.07 264.76">
  <defs>
    <style>
      .cls-1 {
        fill: #9b64a5;
      }

      .cls-2 {
        fill: #c82d2d;
      }

      .cls-3 {
        fill: #fff;
      }
    </style>
  </defs>
  <g id="Farbe">
    <path class="cls-1" d="M224.78,82.9c-3.23.58-6.46,1.18-9.77.69-1.25,1.17-2.56,1.08-3.91.2l-7.06.76c-.47.84-1.12.98-1.93.49-4.01.8-7.8,2.59-11.98,2.59-.49.79-1.15.96-1.97.52-2.73.98-5.57.95-8.41.83-.62.9-1.29,1.67-2.53,1-3.81,1.66-7.62,3.32-11.43,4.98-.86.91-1.78,2.36-2.25-.25-1.27-3.16-2.35-6.41-3.86-9.45-1.46-2.95-2.29-6.62-6.34-7.42-.74.77-1.38.65-1.96-.19-3.35.11-6.7.34-10-.51-2.67.45-5.36,1.08-7.85-.65-2.77.62-5.42-.51-8.15-.58-1.09.52-2.19.59-3.31.08-.89-.41-2.07-.75-2.03-1.86.08-1.81,1.67-1.2,2.64-1.17,3.58.08,7.15.32,10.72.5,1.46-.22,2.94-.39,4.39-.69,7.42-1.55,14.89-3,20.55-8.72.22-1.51.45-3.02-.27-4.48-1.54-.12-2.22,1.27-3.35,1.88-1.22.65-1.85,2.88-3.62,1.86-1.36-.78-.46-2.42-.46-3.68,0-2.82,0-5.62-.98-8.33-2.15-5.94-6.94-7.42-11.91-3.43-2.05,1.65-3.71,3.77-5.57,5.66-.79.8-1.39,2.15-2.69,1.91-1.63-.29-1.49-1.97-1.86-3.18-.29-.95-.54-1.91-.76-2.88-.91-3.96-3.18-4.21-6.21-2.26-.97.63-1.84,1.4-2.79,2.07-5.63,3.99-6.87,3.68-9.99-2.42q-2.56-5-6.76-1.18c-.73.67-1.45,1.36-2.19,2.02q-6.98,6.1-13.27-.86c-.33-.37-.62-.78-1-1.09-1.18-.94-2.5-.69-2.77.64-1.48,7.19-6.4,5.66-11.18,4.61-.16,1.03-.31,2.07-.47,3.1,6.93,7.15,5.75,18.97-2.81,25.15-2.46,1.78-3.36,2.93-.89,5.23,1.01.94,1.48,2.29.79,3.64-.81,1.6-2.39,1.54-3.91,1.55-2.09.01-3.83-.91-5.6-1.85-4.73-2.52-9.8-4.29-15.08-4.88-10.26-1.15-20.3-3.08-30.03-6.61-4.17-1.51-5.4-.49-4.12,3.72,3.78,12.48,11.2,22.4,21.97,29.8,3.42,2.35,7.13,3.34,11.29,3.02,3.44-.26,4.51-1.63,2.73-4.76-1.01-.47-1.75-1.14-1.75-2.36-.2-.16-.28-.36-.25-.62-1.03-.46-1.77-1.14-1.76-2.37-1.29-1.07-2.46-2.24-3.14-3.81-1.14-.29-1.81-.97-1.8-2.2-2.89-2.64-5.8-5.25-10.06-5.3-.81.35-1.5.19-2.06-.51-1.02-.25-2.04-.5-3.06-.75-1.29-.35-3.34.36-3.41-1.72-.04-.98,1.49-.92,2.46-.84,2-.32,4-.63,6-.95,1.69-1.09,3.4-1.08,5.11-.04,4.66.11,9.08,1.56,13.62,2.35,10.81,1.9,19.54,16.43,20.07,23.61.59,7.86,2.69,15.22,4.97,22.64.86,2.8,2.07,4.38,5.06,4.25.54-.76,1.28-1.05,1.85-.22.4.58-.13,1.12-.79,1.34.04.55.08,1.1.12,1.65,1,.55,3.02-.37,3.04,1.17.02,1.48-1.67,2.04-3.19,2.1-11.93,6.42-17.12,17.2-19.31,29.91.33.79.24,1.5-.44,2.08-.08,2.64-.15,5.29-.23,7.93.55.56,1.11,1.12,1.67,1.68,8.38,0,16.75-.02,25.12-.03-1.11-6.43-3.98-12.23-6.6-18.11-.64-1.42-1.65-2.75-3.44-2.04-1.89.75-2.1,2.54-1.56,4.22.55,1.72,1.49,3.32,2.23,4.98.62,1.4,1.24,3.01-.33,4.04-1.75,1.15-3.11-.07-4.25-1.39-3.25-3.74-4.83-16.44-2.6-20.57.61-1.13,1.63-1.56,2.75-1.95,5.3-1.83,10.6-1.07,14.57,2.37,5.69,4.93,7.81,12.17,9.27,19.36.58,2.86-1.72,4.87-3.68,6.7-.73.68-3.03,2.87-3.04,3.64,4.26.81,8.52,1.63,12.78,2.44.79-.32,1.5-.24,2.07.45,4.95.85,9.91,1.7,14.86,2.55.8-.31,1.5-.22,2.05.51,2.64.48,5.28.97,7.92,1.45.79-.32,1.5-.25,2.09.43,7.88,1.01,15.18,3.96,22.49,6.84,2.14.84,4.23,2.03,6.49.34,1-2.61,1.4-5.5,3.6-7.53.02-.46.05-.93.07-1.39-.65-.78-.58-1.45.31-1.99.1-.68.2-1.36.29-2.03,0-4.66,0-9.32-.01-13.97-.1-1.01-.19-2.02-.29-3.03-.74-.53-.87-1.19-.41-1.97-.19-.68-.38-1.35-.57-2.03-1.33-.98-1.84-2.36-1.94-3.94-3.89-5.68-9-10.44-12.43-16.47-2.61-2.26-.75-2.83,1.26-3.33,1.33-1.36,2.65-2.73,3.98-4.09,2.14-.12,2.36-2.04,3.17-3.4,3.48-5.84,6-12.08,7.66-18.66.44-1.74,2.41-4.15-.25-5.2-2.45-.96-3.46,1.81-4.64,3.49-.37.53-.72,1.19-.76,1.82-.47,7.26-3.58,13.55-7.19,19.66-1,.02-2,.05-2.99.07-.62.13-.89-.24-1.05-.76-1.23-.63-1.99-1.56-1.91-3.02-1.34-.69-.99-1.88-.9-2.99-2.03-2.26-3.59-.15-5.17.67-1.75.91-3.28,2.24-5,3.21-2.83,1.59-4.85,1.05-5.25-2.48-.82-7.08-1.18-14.16.09-21.24-.4-.93-.17-1.78.84-1.83.96-.04,1.29.85,1.22,1.78,1.39,2.52,2.78,5.05,4.18,7.57.68-.07,1.36-.13,2.04-.19,5.28-6.42,12.29-10.19,19.97-12.86,2.51-.87,5.19-1.46,6.84,1.66,2.11.26,2.39-2.02,3.8-2.75,1.71-6.77,7.61-6.52,12.71-7.6.61-.88,1.26-1.68,2.48-.95,2.55-1.26,5.13-2.47,8.04-2.62.79-1.15,1.82-1.07,2.93-.57,1.61-.71,3.3-.68,5-.5.59-.83,1.24-.92,1.95-.15,2.49-.06,4.99-.13,7.48-.19.6-.9,1.26-1.66,2.48-.93,1.32-.78,2.71-1.36,4.29-1.29.41-1.08.78-2.31,2.32-1.85,1.11.33,1.45,1.2,1.08,2.31-4.45,4.22-9.9,6.37-15.78,7.63-.41.84-1.07,1.03-1.91.68-2.79,2.12-3.99,5.74-7.14,7.53-.25,1.63.87,2.68,1.66,3.86,1.87-.18,3.74-.36,5.62-.55,1.1-1.39,2.49-1.08,3.9-.66,1.01-.13,2.03-.26,3.04-.39.51-.74,1.14-.97,1.94-.43,5.36-1.25,10.57-2.84,13.3-8.24,1.55-3.07,2.79-6.29,4.16-9.45-.45-1.26.29-1.93,1.23-2.51.16-1.54.32-3.07.49-4.6-.52-.59-1.03-1.18-1.55-1.76ZM97.1,134.59c-1.35,1.05-2.7,1.3-4.06.22-.9-.71-1.69-1.58-2.47-2.44-1.62-1.8-2.31-5.32-4.84-5.16-2.48.16-1.87,3.77-2.99,5.69-1.88,3.22-4.75,3.5-7.16.51-2.62-3.25-3.49-7.07-3.24-11.21.21-2.14.28-4.3.66-6.41.54-3.04-.36-5.16-3.28-6.38-2.63-1.09-4.93-2.48-3.16-5.92,1.59-3.09,4.05-4.24,7.42-2.99,7.1,2.65,13.21,6.72,18.13,12.56,3.78,4.5,3.86,4.44,5.95-1.08.33-.87.24-2.16,1.54-2.24,1.18-.08,1.56,1.02,2.04,1.86,3.37,5.94.8,18.83-4.53,22.97ZM127.55,186.94c1.93-7.88,5.73-14.7,11.91-20.02,2.64-2.27,5.72-3.5,9.12-1.46,4.69,2.83,8.44,6.36,8.71,10.35-.13,9.46-9.73,16.04-16.94,13.71-3.11-1.01-3.7-2.46-1.51-4.96.76-.87,1.38-1.86,2.1-2.77,1.18-1.49,2.46-3.02.21-4.58-2.07-1.44-3.42-.03-4.56,1.47-2.29,3.02-4.5,6.1-6.74,9.15-.46.62-.69,1.72-1.76,1.26-.93-.4-.73-1.37-.54-2.15Z"/>
    <g>
      <path class="cls-2" d="M134.01,213.16c-4.31,13.33-11.26,25-21.99,34.16-6.48,5.53-13.85,7.19-22.24,4.86-8.34-2.32-11.24-8.39-12.38-16.12-1.48-10.06-1.41-20.11-.02-30.15,1.06-7.71.24-8.61-6.27-6.33.83,12.91,1.68,25.82,2.46,38.74.19,3.18.52,6.28,2.24,9.07,3.13,5.08,6.32,10.13,9.32,15.29,1.25,2.15,2.48,2.55,4.82,1.55,9.6-4.12,19.29-8.03,28.94-12.03,1.88-.78,3.46-1.87,4.29-3.89,5.21-12.62,13.65-23.93,15.48-37.93-3.25-1.91-3.87.37-4.65,2.78Z"/>
      <path class="cls-2" d="M104.14,245.18c12.77-8.12,19.34-20.84,24.13-34.64.81-2.34-.21-3.88-2.85-4.75-10.47-3.42-10.44-3.51-13.8,6.77-.41,1.26-.92,2.49-1.23,3.77-1.24,5.01-4.1,8.51-9.12,10.11-.76.24-1.49,1-2.24.35-.71-.61-.4-1.51-.18-2.32,1.48-5.41,2.95-10.83,4.41-16.25q1.92-7.13-5.57-7.96c-1.14-.13-2.27-.43-3.4-.68-3.55-.8-5.77.33-6.3,4.15-.83,6.05-1.7,12.08-2.35,16.69.27,7.97.96,14.33,4.11,20.19,3.33,6.17,8.57,8.25,14.4,4.55Z"/>
    </g>
    <path class="cls-3" d="M158.35,64.05c.22-1.51.45-3.02-.27-4.48,1.88-3.93,4.92-5.73,9.34-6.25,10.2-1.22,19.5-4.92,27.71-11.25,4.88-3.76,9.25-7.72,10.35-14.27.2-1.21.91-3.46,2.41-3.37,1.7.11,2.04,2.55,2.09,3.78.28,7.18,2.4,14.12,2.25,21.4-.13,6.56-2.9,10.9-8.65,13.22-11.08,4.47-22.87,6.58-34.32,9.83-1.72.49-2.89-.03-3.29-1.93-.24-1.13-.83-2.21-.93-3.34-.41-4.88-2.38-6.41-6.69-3.33Z"/>
    <path class="cls-3" d="M70.72,50.94c-.16,1.03-.31,2.07-.47,3.1-3.64.67-3.9,3.82-4.37,6.48-.78,4.48-3.39,5.97-7.65,5.98-13.99.02-26.91-12.31-27.11-26.3-.11-8.06-1.12-16.29,2.63-23.93.61-1.25.74-3.28,2.58-3.25,1.56.02,1.67,1.9,2.2,3.02,1.82,3.89,4.09,7.72,5.08,11.83,2.45,10.15,8.76,16.42,18.22,19.96,2.94,1.1,5.92,2.08,8.89,3.11Z"/>
  </g>
  <g id="Outline">
    <path d="M82.42,187.07c-1.11-6.43-3.98-12.23-6.6-18.11-.64-1.42-1.65-2.75-3.44-2.04-1.89.75-2.1,2.54-1.56,4.22.55,1.72,1.49,3.32,2.23,4.98.62,1.4,1.24,3.01-.33,4.04-1.75,1.15-3.11-.07-4.25-1.39-3.25-3.74-4.83-16.44-2.6-20.57.61-1.13,1.63-1.56,2.75-1.95,5.3-1.83,10.6-1.07,14.57,2.37,5.69,4.93,7.81,12.17,9.27,19.36.58,2.86-1.72,4.87-3.68,6.7-1.17,1.09-3.02,1.59-3.04,3.64-1.29.08-2.57.15-3.31-1.25Z"/>
    <path d="M72.34,122.21c.21-2.14.28-4.3.66-6.41.54-3.04-.36-5.16-3.28-6.38-2.63-1.09-4.93-2.48-3.16-5.92,1.59-3.09,4.05-4.24,7.42-2.99,7.1,2.65,13.21,6.72,18.13,12.56,3.78,4.5,3.86,4.44,5.95-1.08.33-.87.24-2.16,1.54-2.24,1.18-.08,1.56,1.02,2.04,1.86,3.37,5.94.8,18.83-4.53,22.97-1.35,1.05-2.7,1.3-4.06.22-.9-.71-1.69-1.58-2.47-2.44-1.62-1.8-2.31-5.32-4.84-5.16-2.48.16-1.87,3.77-2.99,5.69-1.88,3.22-4.75,3.5-7.16.51-2.62-3.25-3.49-7.07-3.24-11.21Z"/>
    <path d="M157.29,175.8c-.13,9.46-9.73,16.04-16.94,13.71-3.11-1.01-3.7-2.46-1.51-4.96.76-.87,1.38-1.86,2.1-2.77,1.18-1.49,2.46-3.02.21-4.58-2.07-1.44-3.42-.03-4.56,1.47-2.29,3.02-4.5,6.1-6.74,9.15-.46.62-.69,1.72-1.76,1.26-.93-.4-.73-1.37-.54-2.15,1.93-7.88,5.73-14.7,11.91-20.02,2.64-2.27,5.72-3.5,9.12-1.46,4.69,2.83,8.44,6.36,8.71,10.35Z"/>
    <path d="M51.82,223.46c-.17-1.63-1.76-1.21-2.8-1.27-5.62-.29-11.18-.42-16.31-3.43-2.88-1.69-5.57-.07-7.45,2.21-1.49,1.8-4.25,3.64-3.08,6.24,1.18,2.62,4.46,2.43,7.03,2.96.32.07.66.04,1.44.07,6.13-1.52,12.69-3.11,19.22-4.8.94-.24,2.05-.94,1.94-1.99Z"/>
    <path d="M57.36,238.73c-5.82,1.68-9.58,6.27-13.96,9.99-1.93,1.63-2.88,3.57-2.56,6.11.24,1.55-.58,3.48,1.16,4.54,1.96,1.19,3.83.23,5.62-.69,2.02-1.04,3.05-2.93,4.12-4.82,2.36-4.14,4.18-8.65,8.08-11.76,1.04-.83,2.05-2.18,1.17-3.44-.95-1.36-2.45-.26-3.63.08Z"/>
    <path d="M138.79,242.49c-1.32.06-2.73.05-3.62,1.2-.44.58.08,1.2.63,1.62,3.44,2.64,4.31,6.35,4.77,10.43.3,2.68,2.17,4.76,4.29,6.44,2.76,2.19,4.63,1.6,6.02-1.71,2.49-5.94-5.35-17.72-12.09-17.98Z"/>
    <path d="M226.37,72.38c-4.4.82-8.8,1.68-13.21,2.39-.9.15-2.28.06-2.76-.5-.97-1.12.21-2.17.93-2.99,16.57-18.76,7.42-38.37,1.82-57.8-.61-2.11-2.81-3.27-5.21-3.14-2.42.13-3.28,2.07-3.96,3.95-.5,1.39-.98,2.9-.92,4.34.18,4.45-2.07,7.43-5.23,10.19-9.78,8.54-21.63,12.72-33.74,16.39-2.37.72-4.41-.12-5.48-2.29-2.37-4.81-6.21-5.34-10.9-4.38-5.52,1.14-11.14,3.36-16.25-1.57-.97-.94-3.18-.85-4.8-.82-5.66.11-11.07,1.83-16.65-2.44-3.67-2.8-7.93,1.62-11.6,3.75-1.7.98-3.73,3.72-4.94,2.86-6.54-4.62-11.57-.1-17.62,1.24-9.22,2.05-21.85-4.93-25.4-13.75-3.23-8.01-5.88-16.21-9.03-24.23-.7-1.79-1.52-5.39-4.13-2.5-3.59,3.97-8.12,7.49-9.34,13.24-1.63,7.64-3.27,15.25-2.24,23.16.49,3.77,1.37,7.69.81,11.36-1.31,8.6,1.79,15.24,7.61,21.08.89.89,2.55,1.73,1.72,3.19-.82,1.43-2.41.38-3.63.18-9.54-1.57-18.69-4.49-27.71-7.88-2.24-.84-5.06-1.76-4.4,2.43,2.15,13.5,4.85,27.07,12.92,38.33,8.42,11.77,19.09,20.63,35.29,16.79,2.52-.6,3.63.37,4.47,2.56,2.49,6.5,5.04,12.99,7.71,19.41,1.08,2.6.44,4.29-1.74,5.96-3.9,2.98-6.39,7.01-8.42,11.49-4.48,9.87-4.68,20.26-4.35,30.76.25,7.97,4.66,11.24,12.52,9.35,4.19-1.01,8.4-1.94,12.6-2.9,6.51-2.29,7.33-1.38,6.27,6.33-1.38,10.04-1.46,20.09.02,30.15,1.14,7.74,4.04,13.81,12.38,16.12,8.39,2.33,15.76.67,22.24-4.86,10.73-9.16,17.69-20.84,21.99-34.16.78-2.41,1.39-4.69,4.65-2.78,5.9,2.21,11.82,4.36,17.7,6.63,4.08,1.58,7.57.46,9.44-3.13,8.9-17,11.94-34.36,1.84-52.08-2.3-4.03-4.77-7.96-7.17-11.94-1.2-1.98-1.43-3.95-.45-6.14,2.97-6.66,5.93-13.33,8.71-20.08,1.96-4.75,5.06-6,9.9-4.45,6.21,2,12.74,3.33,19.15,1.89,13.74-3.1,27.06-7.44,31.42-23.12,1.59-5.72,3.48-11.3,5.3-16.92,2.04-6.32-1.43-9.91-8.11-8.66ZM128.27,210.55c-4.78,13.8-11.35,26.52-24.13,34.64-5.83,3.7-11.07,1.62-14.4-4.55-3.16-5.86-3.84-12.22-4.11-20.19.65-4.61,1.53-10.64,2.35-16.69.52-3.82,2.75-4.95,6.3-4.15,1.13.25,2.25.55,3.4.68q7.48.84,5.57,7.96c-1.46,5.42-2.93,10.83-4.41,16.25-.22.81-.53,1.71.18,2.32.75.65,1.49-.11,2.24-.35,5.02-1.6,7.88-5.1,9.12-10.11.32-1.28.82-2.51,1.23-3.77,3.36-10.28,3.33-10.19,13.8-6.77,2.65.86,3.67,2.41,2.85,4.75ZM160.73,176.41c0,4.66,0,9.32.01,13.97-.1.68-.2,1.36-.29,2.03.63.52.74.97.49,1.35.25-.39.14-.83-.49-1.35-.89.54-.96,1.21-.31,1.99-.02.46-.05.92-.07,1.39,0,0,0,0,0,0-2.19,2.04-2.6,4.92-3.6,7.53-2.26,1.69-4.35.5-6.49-.34-7.31-2.89-14.61-5.83-22.49-6.84,0,0,0,0,0,0-.59-.68-1.3-.74-2.09-.43-2.64-.48-5.28-.97-7.92-1.45,0,0,0,0,0,0-.54-.73-1.25-.81-2.05-.51-4.95-.85-9.91-1.7-14.86-2.55,0,0,0,0,0,0-.57-.69-1.28-.77-2.07-.45l-12.78-2.44c-1.29.08-2.58.15-3.31-1.25-8.37,0-16.75.02-25.12.02,0,0,0,0,0,0-.56-.56-1.11-1.12-1.66-1.68l.23-7.93s0,0,0,0c.67-.58.77-1.28.44-2.08,2.19-12.71,7.38-23.49,19.31-29.91.05-1.09.1-2.18.15-3.27-.04-.55-.08-1.1-.12-1.65h0c.66-.23,1.19-.77.79-1.34-.57-.82-1.31-.54-1.85.22-3,.13-4.2-1.45-5.06-4.25-2.27-7.43-4.38-14.78-4.97-22.64-.54-7.18-9.26-21.72-20.07-23.61-4.54-.8-8.96-2.24-13.62-2.35,0,0,0,0,0,0-1.71-1.05-3.41-1.06-5.11.04-2,.32-4,.63-6,.95,0,0,0,0,0,0-.98-.08-2.5-.14-2.46.84.08,2.08,2.13,1.37,3.41,1.72,1.02.25,2.04.5,3.06.75,0,0,0,0,0,0,.56.7,1.25.86,2.06.51,4.26.05,7.17,2.66,10.06,5.3.66.07,1.14.29,1.43.66-.3-.37-.77-.59-1.44-.66,0,1.23.66,1.91,1.8,2.2.67,1.58,1.84,2.75,3.14,3.81.69.06,1.17.28,1.45.64-.29-.36-.76-.58-1.45-.64,0,1.23.73,1.91,1.76,2.37-.04.25.04.46.25.62.92.08,1.45.45,1.67,1.05-.22-.6-.75-.97-1.67-1.05,0,1.22.74,1.89,1.75,2.36,1.79,3.13.71,4.5-2.73,4.76-4.15.31-7.87-.68-11.29-3.02-10.77-7.4-18.19-17.31-21.97-29.8-1.28-4.21-.05-5.23,4.12-3.72,9.73,3.52,19.76,5.46,30.03,6.61,5.27.59,10.35,2.36,15.08,4.88,1.77.94,3.51,1.87,5.6,1.85,1.52-.01,3.1.04,3.91-1.55.69-1.35.22-2.7-.79-3.64-2.46-2.3-1.57-3.45.89-5.23,8.56-6.18,9.74-18,2.81-25.15-3.64.67-3.9,3.82-4.37,6.48-.78,4.48-3.39,5.97-7.65,5.98-13.99.02-26.91-12.31-27.11-26.3-.11-8.06-1.12-16.29,2.63-23.93.61-1.25.74-3.28,2.58-3.25,1.56.02,1.67,1.9,2.2,3.02,1.82,3.89,4.09,7.72,5.08,11.83,2.45,10.15,8.76,16.42,18.22,19.96,2.94,1.1,5.92,2.08,8.89,3.11,4.78,1.04,9.7,2.57,11.18-4.61.27-1.34,1.59-1.59,2.77-.64.38.3.67.72,1,1.09q6.29,6.95,13.27.86c.75-.65,1.46-1.35,2.19-2.02q4.2-3.83,6.76,1.18c3.12,6.1,4.36,6.41,9.99,2.42.94-.67,1.82-1.45,2.79-2.07,3.03-1.95,5.3-1.7,6.21,2.26.22.97.47,1.93.76,2.88.37,1.21.23,2.89,1.86,3.18,1.3.23,1.9-1.11,2.69-1.91,1.85-1.89,3.52-4.01,5.57-5.66,4.97-3.99,9.76-2.51,11.91,3.43.98,2.72.99,5.51.98,8.33,0,1.26-.9,2.9.46,3.68,1.77,1.02,2.41-1.21,3.62-1.86,1.13-.6,1.8-2,3.35-1.88,1.88-3.93,4.92-5.73,9.34-6.25,10.2-1.22,19.5-4.92,27.71-11.25,4.88-3.76,9.25-7.72,10.35-14.27.2-1.21.91-3.46,2.41-3.37,1.7.11,2.04,2.55,2.09,3.78.28,7.18,2.4,14.12,2.25,21.4-.13,6.56-2.9,10.9-8.65,13.22-11.08,4.47-22.87,6.58-34.32,9.83-1.72.49-2.89-.03-3.29-1.93-.24-1.13-.83-2.21-.93-3.34-.41-4.88-2.38-6.41-6.69-3.33-5.65,5.72-13.13,7.17-20.55,8.72-1.45.3-2.93.47-4.39.69-1.49,2.4-4.14.99-6.24,1.37,2.11-.38,4.75,1.02,6.24-1.38-3.57-.18-7.15-.42-10.72-.5-.97-.02-2.57-.63-2.64,1.17-.05,1.11,1.14,1.45,2.03,1.86,1.12.51,2.22.44,3.31-.08,2.72.07,5.37,1.21,8.15.58,1.52-.43,3.04-.92,4.52-.84-1.48-.08-3,.4-4.52.84,2.49,1.73,5.18,1.1,7.85.65,3.3.84,6.65.61,10,.51.35-.45.68-.65.99-.63-.31-.02-.64.18-.99.63.58.84,1.22.96,1.96.19,4.05.8,4.88,4.46,6.34,7.42,1.5,3.04,2.59,6.29,3.86,9.45.75.08,1.5.17,2.25.25,3.81-1.66,7.62-3.32,11.43-4.98.37-.91,1.01-1.14,1.75-1.11-.74-.04-1.38.2-1.75,1.11,1.24.68,1.91-.09,2.53-1,2.84.12,5.68.15,8.41-.83.3-.86.69-1.4,1.29-1.11-.6-.29-.99.25-1.29,1.11.82.44,1.48.27,1.97-.52,4.18,0,7.97-1.8,11.98-2.6.37-.92.84-1.42,1.59-.82-.75-.6-1.22-.1-1.59.82.81.49,1.46.35,1.93-.49l7.06-.76c1.35.88,2.67.96,3.91-.2,3.31.5,6.53-.11,9.76-.68,0,0,0,0,0,0,.52.59,1.03,1.18,1.55,1.76-.16,1.53-.33,3.07-.49,4.6,0,0,0,0,0,0-.95.57-1.69,1.25-1.23,2.51-1.38,3.15-2.61,6.38-4.16,9.45-2.73,5.39-7.94,6.99-13.3,8.24-.39.91-.88,1.37-1.61.76.73.61,1.22.15,1.61-.76-.8-.53-1.43-.31-1.94.43-1.01.13-2.03.26-3.04.39-.77,1.51-1.76,1.7-2.86,1.24,1.1.46,2.09.27,2.86-1.24-1.41-.42-2.8-.73-3.9.66-1.87.18-3.74.36-5.61.54,0,0,0,0,0,0-.8-1.18-1.92-2.22-1.66-3.86,3.14-1.79,4.35-5.41,7.14-7.53.31-.9.71-1.54,1.53-.99-.82-.55-1.22.09-1.53.99.84.35,1.49.16,1.91-.68,5.88-1.26,11.33-3.42,15.78-7.63-1.13-.15-2.27-.31-3.4-.46-1.58-.07-2.96.51-4.29,1.3-.46.98-1.23,1.11-2.1.99.87.12,1.64-.02,2.1-1-1.22-.73-1.88.03-2.48.93-2.49.06-4.99.13-7.48.19-.71-.78-1.36-.69-1.95.15-1.7-.19-3.39-.21-5,.5-.52,1.23-1.22,1.58-2.05,1.19-.28-.13-.57-.34-.88-.63-2.92.16-5.49,1.37-8.04,2.63-.39.87-1.04,1.08-1.78,1.04.74.04,1.39-.17,1.78-1.05-1.23-.72-1.87.07-2.48.95-5.1,1.08-11.01.83-12.71,7.6,0,0,0,0,0,0-1.41.72-1.69,3-3.8,2.75-1.66-3.11-4.34-2.53-6.84-1.66-7.67,2.67-14.69,6.44-19.97,12.86-.12.57-.3,1.19-.89,1.22.59-.04.77-.65.89-1.22-.68.06-1.36.13-2.04.19-1.39-2.52-2.78-5.05-4.18-7.57-.69.02-1.37.03-2.06.05-1.26,7.07-.91,14.16-.09,21.24.41,3.53,2.43,4.08,5.25,2.48,1.72-.97,3.25-2.3,5-3.21,1.58-.82,3.14-2.93,5.17-.67.79.17,1.33.42,1.61.74-.28-.32-.82-.57-1.61-.74-.09,1.12-.44,2.31.9,2.99-.08,1.46.68,2.38,1.91,3.02,0,0,0,0,0,0,.16.52.42.88,1.05.76,1-.02,2-.05,2.99-.07,3.6-6.11,6.71-12.4,7.19-19.66.04-.62.39-1.29.76-1.82,1.18-1.68,2.19-4.45,4.64-3.49,2.67,1.05.69,3.46.25,5.2-1.66,6.58-4.18,12.82-7.66,18.66-.81,1.36-1.03,3.27-3.17,3.4-1.33,1.36-2.65,2.73-3.98,4.09-.42,1.11-.84,2.22-1.26,3.33,3.43,6.03,8.53,10.79,12.43,16.47,1.22.47,2.15,1.08,2.33,2.06-.18-.98-1.11-1.59-2.33-2.06.1,1.58.61,2.96,1.94,3.94.19.68.38,1.35.57,2.03.83.35,1.31.78.96,1.37.34-.59-.13-1.02-.96-1.37-.46.78-.33,1.44.41,1.97.1,1.01.2,2.02.29,3.03M127.02,74.87c-.27.06-.53.15-.77.28.24-.14.5-.22.77-.28ZM78.8,143.39c-.02-1.54-2.04-.62-3.04-1.17-.05,1.09-.1,2.18-.15,3.27,1.52-.06,3.21-.62,3.19-2.1Z"/>
    <path d="M145.09,148.99c.42-1.11.84-2.22,1.26-3.33-2.01.51-3.88,1.07-1.26,3.33Z"/>
    <path d="M126.98,110.92c-1.01.04-1.24.9-.84,1.83.69-.02,1.37-.03,2.06-.05.07-.93-.26-1.82-1.22-1.78Z"/>
    <path d="M165.79,94.96c-.75-.08-1.5-.17-2.25-.25.47,2.61,1.39,1.16,2.25.25Z"/>
  </g>
</svg>