<?xml version="1.0" encoding="UTF-8" standalone="no"?>
<!DOCTYPE svg PUBLIC "-//W3C//DTD SVG 1.1//EN" "http://www.w3.org/Graphics/SVG/1.1/DTD/svg11.dtd">
<svg width="100%" height="100%" viewBox="0 0 236 265" version="1.1" xmlns="http://www.w3.org/2000/svg" xmlns:xlink="http://www.w3.org/1999/xlink" xml:space="preserve" xmlns:serif="http://www.serif.com/" style="fill-rule:evenodd;clip-rule:evenodd;stroke-linejoin:round;stroke-miterlimit:2;">
    <g id="Farbe">
    </g>
    <g id="Outline">
        <path d="M51.82,223.46C51.65,221.83 50.06,222.25 49.02,222.19C43.4,221.9 37.84,221.77 32.71,218.76C29.83,217.07 27.14,218.69 25.26,220.97C23.77,222.77 21.01,224.61 22.18,227.21C23.36,229.83 26.64,229.64 29.21,230.17C29.53,230.24 29.87,230.21 30.65,230.24C36.78,228.72 43.34,227.13 49.87,225.44C50.81,225.2 51.92,224.5 51.81,223.45L51.82,223.46Z" style="fill-rule:nonzero;"/>
        <path d="M57.36,238.73C51.54,240.41 47.78,245 43.4,248.72C41.47,250.35 40.52,252.29 40.84,254.83C41.08,256.38 40.26,258.31 42,259.37C43.96,260.56 45.83,259.6 47.62,258.68C49.64,257.64 50.67,255.75 51.74,253.86C54.1,249.72 55.92,245.21 59.82,242.1C60.86,241.27 61.87,239.92 60.99,238.66C60.04,237.3 58.54,238.4 57.36,238.74L57.36,238.73Z" style="fill-rule:nonzero;"/>
        <path d="M138.79,242.49C137.47,242.55 136.06,242.54 135.17,243.69C134.73,244.27 135.25,244.89 135.8,245.31C139.24,247.95 140.11,251.66 140.57,255.74C140.87,258.42 142.74,260.5 144.86,262.18C147.62,264.37 149.49,263.78 150.88,260.47C153.37,254.53 145.53,242.75 138.79,242.49Z" style="fill-rule:nonzero;"/>
    </g>
</svg>
