<?xml version="1.0" encoding="UTF-8" standalone="no"?>
<!DOCTYPE svg PUBLIC "-//W3C//DTD SVG 1.1//EN" "http://www.w3.org/Graphics/SVG/1.1/DTD/svg11.dtd">
<svg width="100%" height="100%" viewBox="0 0 236 265" version="1.1" xmlns="http://www.w3.org/2000/svg" xmlns:xlink="http://www.w3.org/1999/xlink" xml:space="preserve" xmlns:serif="http://www.serif.com/" style="fill-rule:evenodd;clip-rule:evenodd;stroke-linejoin:round;stroke-miterlimit:2;">
    <g id="Farbe">
        <path d="M224.78,82.9C221.55,83.48 218.32,84.08 215.01,83.59C213.76,84.76 212.45,84.67 211.1,83.79L204.04,84.55C203.57,85.39 202.92,85.53 202.11,85.04C198.1,85.84 194.31,87.63 190.13,87.63C189.64,88.42 188.98,88.59 188.16,88.15C185.43,89.13 182.59,89.1 179.75,88.98C179.13,89.88 178.46,90.65 177.22,89.98C173.41,91.64 169.6,93.3 165.79,94.96C164.93,95.87 164.01,97.32 163.54,94.71C162.27,91.55 161.19,88.3 159.68,85.26C158.22,82.31 157.39,78.64 153.34,77.84C152.6,78.61 151.96,78.49 151.38,77.65C148.03,77.76 144.68,77.99 141.38,77.14C138.71,77.59 136.02,78.22 133.53,76.49C130.76,77.11 128.11,75.98 125.38,75.91C124.29,76.43 123.19,76.5 122.07,75.99C121.18,75.58 120,75.24 120.04,74.13C120.12,72.32 121.71,72.93 122.68,72.96C126.26,73.04 129.83,73.28 133.4,73.46C134.86,73.24 136.34,73.07 137.79,72.77C145.21,71.22 152.68,69.77 158.34,64.05C158.56,62.54 158.79,61.03 158.07,59.57C156.53,59.45 155.85,60.84 154.72,61.45C153.5,62.1 152.87,64.33 151.1,63.31C149.74,62.53 150.64,60.89 150.64,59.63C150.64,56.81 150.64,54.01 149.66,51.3C147.51,45.36 142.72,43.88 137.75,47.87C135.7,49.52 134.04,51.64 132.18,53.53C131.39,54.33 130.79,55.68 129.49,55.44C127.86,55.15 128,53.47 127.63,52.26C127.34,51.31 127.09,50.35 126.87,49.38C125.96,45.42 123.69,45.17 120.66,47.12C119.69,47.75 118.82,48.52 117.87,49.19C112.24,53.18 111,52.87 107.88,46.77C106.173,43.437 103.92,43.043 101.12,45.59C100.39,46.26 99.67,46.95 98.93,47.61C94.277,51.677 89.853,51.39 85.66,46.75C85.33,46.38 85.04,45.97 84.66,45.66C83.48,44.72 82.16,44.97 81.89,46.3C80.41,53.49 75.49,51.96 70.71,50.91C70.55,51.94 70.4,52.98 70.24,54.01C77.17,61.16 75.99,72.98 67.43,79.16C64.97,80.94 64.07,82.09 66.54,84.39C67.55,85.33 68.02,86.68 67.33,88.03C66.52,89.63 64.94,89.57 63.42,89.58C61.33,89.59 59.59,88.67 57.82,87.73C53.09,85.21 48.02,83.44 42.74,82.85C32.48,81.7 22.44,79.77 12.71,76.24C8.54,74.73 7.31,75.75 8.59,79.96C12.37,92.44 19.79,102.36 30.56,109.76C33.98,112.11 37.69,113.1 41.85,112.78C45.29,112.52 46.36,111.15 44.58,108.02C43.57,107.55 42.83,106.88 42.83,105.66C42.63,105.5 42.55,105.3 42.58,105.04C41.55,104.58 40.81,103.9 40.82,102.67C39.53,101.6 38.36,100.43 37.68,98.86C36.54,98.57 35.87,97.89 35.88,96.66C32.99,94.02 30.08,91.41 25.82,91.36C25.01,91.71 24.32,91.55 23.76,90.85C22.74,90.6 21.72,90.35 20.7,90.1C19.41,89.75 17.36,90.46 17.29,88.38C17.25,87.4 18.78,87.46 19.75,87.54C21.75,87.22 23.75,86.91 25.75,86.59C27.44,85.5 29.15,85.51 30.86,86.55C35.52,86.66 39.94,88.11 44.48,88.9C55.29,90.8 64.02,105.33 64.55,112.51C65.14,120.37 67.24,127.73 69.52,135.15C70.38,137.95 71.59,139.53 74.58,139.4C75.12,138.64 75.86,138.35 76.43,139.18C76.83,139.76 76.3,140.3 75.64,140.52C75.68,141.07 75.72,141.62 75.76,142.17C76.76,142.72 78.78,141.8 78.8,143.34C78.82,144.82 77.13,145.38 75.61,145.44C63.68,151.86 58.49,162.64 56.3,175.35C56.63,176.14 56.54,176.85 55.86,177.43C55.78,180.07 55.71,182.72 55.63,185.36C56.18,185.92 56.74,186.48 57.3,187.04C65.68,187.04 74.05,187.02 82.42,187.01C81.31,180.58 78.44,174.78 75.82,168.9C75.18,167.48 74.17,166.15 72.38,166.86C70.49,167.61 70.28,169.4 70.82,171.08C71.37,172.8 72.31,174.4 73.05,176.06C73.67,177.46 74.29,179.07 72.72,180.1C70.97,181.25 69.61,180.03 68.47,178.71C65.22,174.97 63.64,162.27 65.87,158.14C66.48,157.01 67.5,156.58 68.62,156.19C73.92,154.36 79.22,155.12 83.19,158.56C88.88,163.49 91,170.73 92.46,177.92C93.04,180.78 90.74,182.79 88.78,184.62C88.05,185.3 85.75,187.49 85.74,188.26C90,189.07 94.26,189.89 98.52,190.7C99.31,190.38 100.02,190.46 100.59,191.15C105.54,192 110.5,192.85 115.45,193.7C116.25,193.39 116.95,193.48 117.5,194.21C120.14,194.69 122.78,195.18 125.42,195.66C126.21,195.34 126.92,195.41 127.51,196.09C135.39,197.1 142.69,200.05 150,202.93C152.14,203.77 154.23,204.96 156.49,203.27C157.49,200.66 157.89,197.77 160.09,195.74C160.11,195.28 160.14,194.81 160.16,194.35C159.51,193.57 159.58,192.9 160.47,192.36C160.57,191.68 160.67,191 160.76,190.33C160.76,185.67 160.76,181.01 160.75,176.36C160.65,175.35 160.56,174.34 160.46,173.33C159.72,172.8 159.59,172.14 160.05,171.36C159.86,170.68 159.67,170.01 159.48,169.33C158.15,168.35 157.64,166.97 157.54,165.39C153.65,159.71 148.54,154.95 145.11,148.92C142.5,146.66 144.36,146.09 146.37,145.59C147.7,144.23 149.02,142.86 150.35,141.5C152.49,141.38 152.71,139.46 153.52,138.1C157,132.26 159.52,126.02 161.18,119.44C161.62,117.7 163.59,115.29 160.93,114.24C158.48,113.28 157.47,116.05 156.29,117.73C155.92,118.26 155.57,118.92 155.53,119.55C155.06,126.81 151.95,133.1 148.34,139.21C147.34,139.23 146.34,139.26 145.35,139.28C144.73,139.41 144.46,139.04 144.3,138.52C143.07,137.89 142.31,136.96 142.39,135.5C141.05,134.81 141.4,133.62 141.49,132.51C139.46,130.25 137.9,132.36 136.32,133.18C134.57,134.09 133.04,135.42 131.32,136.39C128.49,137.98 126.47,137.44 126.07,133.91C125.25,126.83 124.89,119.75 126.16,112.67C125.76,111.74 125.99,110.89 127,110.84C127.96,110.8 128.29,111.69 128.22,112.62C129.61,115.14 131,117.67 132.4,120.19C133.08,120.12 133.76,120.06 134.44,120C139.72,113.58 146.73,109.81 154.41,107.14C156.92,106.27 159.6,105.68 161.25,108.8C163.36,109.06 163.64,106.78 165.05,106.05C166.76,99.28 172.66,99.53 177.76,98.45C178.37,97.57 179.02,96.77 180.24,97.5C182.79,96.24 185.37,95.03 188.28,94.88C189.07,93.73 190.1,93.81 191.21,94.31C192.82,93.6 194.51,93.63 196.21,93.81C196.8,92.98 197.45,92.89 198.16,93.66C200.65,93.6 203.15,93.53 205.64,93.47C206.24,92.57 206.9,91.81 208.12,92.54C209.44,91.76 210.83,91.18 212.41,91.25C212.82,90.17 213.19,88.94 214.73,89.4C215.84,89.73 216.18,90.6 215.81,91.71C211.36,95.93 205.91,98.08 200.03,99.34C199.62,100.18 198.96,100.37 198.12,100.02C195.33,102.14 194.13,105.76 190.98,107.55C190.73,109.18 191.85,110.23 192.64,111.41C194.51,111.23 196.38,111.05 198.26,110.86C199.36,109.47 200.75,109.78 202.16,110.2C203.17,110.07 204.19,109.94 205.2,109.81C205.71,109.07 206.34,108.84 207.14,109.38C212.5,108.13 217.71,106.54 220.44,101.14C221.99,98.07 223.23,94.85 224.6,91.69C224.15,90.43 224.89,89.76 225.83,89.18C225.99,87.64 226.15,86.11 226.32,84.58C225.8,83.99 225.29,83.4 224.77,82.82L224.78,82.9ZM97.1,134.59C95.75,135.64 94.4,135.89 93.04,134.81C92.14,134.1 91.35,133.23 90.57,132.37C88.95,130.57 88.26,127.05 85.73,127.21C83.25,127.37 83.86,130.98 82.74,132.9C80.86,136.12 77.99,136.4 75.58,133.41C72.96,130.16 72.09,126.34 72.34,122.2C72.55,120.06 72.62,117.9 73,115.79C73.54,112.75 72.64,110.63 69.72,109.41C67.09,108.32 64.79,106.93 66.56,103.49C68.15,100.4 70.61,99.25 73.98,100.5C81.08,103.15 87.19,107.22 92.11,113.06C95.89,117.56 95.97,117.5 98.06,111.98C98.39,111.11 98.3,109.82 99.6,109.74C100.78,109.66 101.16,110.76 101.64,111.6C105.01,117.54 102.44,130.43 97.11,134.57L97.1,134.59ZM127.55,186.94C129.48,179.06 133.28,172.24 139.46,166.92C142.1,164.65 145.18,163.42 148.58,165.46C153.27,168.29 157.02,171.82 157.29,175.81C157.16,185.27 147.56,191.85 140.35,189.52C137.24,188.51 136.65,187.06 138.84,184.56C139.6,183.69 140.22,182.7 140.94,181.79C142.12,180.3 143.4,178.77 141.15,177.21C139.08,175.77 137.73,177.18 136.59,178.68C134.3,181.7 132.09,184.78 129.85,187.83C129.39,188.45 129.16,189.55 128.09,189.09C127.16,188.69 127.36,187.72 127.55,186.94Z" style="fill:rgb(155,100,165);fill-rule:nonzero;"/>
        <g>
            <path d="M134.01,213.16C129.7,226.49 122.75,238.16 112.02,247.32C105.54,252.85 98.17,254.51 89.78,252.18C81.44,249.86 78.54,243.79 77.4,236.06C75.92,226 75.99,215.95 77.38,205.91C78.44,198.2 77.62,197.3 71.11,199.58C71.94,212.49 72.79,225.4 73.57,238.32C73.76,241.5 74.09,244.6 75.81,247.39C78.94,252.47 82.13,257.52 85.13,262.68C86.38,264.83 87.61,265.23 89.95,264.23C99.55,260.11 109.24,256.2 118.89,252.2C120.77,251.42 122.35,250.33 123.18,248.31C128.39,235.69 136.83,224.38 138.66,210.38C135.41,208.47 134.79,210.75 134.01,213.16Z" style="fill:rgb(200,45,45);fill-rule:nonzero;"/>
            <path d="M104.14,245.18C116.91,237.06 123.48,224.34 128.27,210.54C129.08,208.2 128.06,206.66 125.42,205.79C114.95,202.37 114.98,202.28 111.62,212.56C111.21,213.82 110.7,215.05 110.39,216.33C109.15,221.34 106.29,224.84 101.27,226.44C100.51,226.68 99.78,227.44 99.03,226.79C98.32,226.18 98.63,225.28 98.85,224.47C100.33,219.06 101.8,213.64 103.26,208.22C104.54,203.467 102.683,200.813 97.69,200.26C96.55,200.13 95.42,199.83 94.29,199.58C90.74,198.78 88.52,199.91 87.99,203.73C87.16,209.78 86.29,215.81 85.64,220.42C85.91,228.39 86.6,234.75 89.75,240.61C93.08,246.78 98.32,248.86 104.15,245.16L104.14,245.18Z" style="fill:rgb(200,45,45);fill-rule:nonzero;"/>
        </g>
        <path d="M158.35,64.05C158.57,62.54 158.8,61.03 158.08,59.57C159.96,55.64 163,53.84 167.42,53.32C177.62,52.1 186.92,48.4 195.13,42.07C200.01,38.31 204.38,34.35 205.48,27.8C205.68,26.59 206.39,24.34 207.89,24.43C209.59,24.54 209.93,26.98 209.98,28.21C210.26,35.39 212.38,42.33 212.23,49.61C212.1,56.17 209.33,60.51 203.58,62.83C192.5,67.3 180.71,69.41 169.26,72.66C167.54,73.15 166.37,72.63 165.97,70.73C165.73,69.6 165.14,68.52 165.04,67.39C164.63,62.51 162.66,60.98 158.35,64.06L158.35,64.05Z" style="fill:white;fill-rule:nonzero;"/>
        <path d="M70.72,50.94C70.56,51.97 70.41,53.01 70.25,54.04C66.61,54.71 66.35,57.86 65.88,60.52C65.1,65 62.49,66.49 58.23,66.5C44.24,66.52 31.32,54.19 31.12,40.2C31.01,32.14 30,23.91 33.75,16.27C34.36,15.02 34.49,12.99 36.33,13.02C37.89,13.04 38,14.92 38.53,16.04C40.35,19.93 42.62,23.76 43.61,27.87C46.06,38.02 52.37,44.29 61.83,47.83C64.77,48.93 67.75,49.91 70.72,50.94Z" style="fill:white;fill-rule:nonzero;"/>
    </g>
    <g id="Outline">
        <path d="M82.42,187.07C81.31,180.64 78.44,174.84 75.82,168.96C75.18,167.54 74.17,166.21 72.38,166.92C70.49,167.67 70.28,169.46 70.82,171.14C71.37,172.86 72.31,174.46 73.05,176.12C73.67,177.52 74.29,179.13 72.72,180.16C70.97,181.31 69.61,180.09 68.47,178.77C65.22,175.03 63.64,162.33 65.87,158.2C66.48,157.07 67.5,156.64 68.62,156.25C73.92,154.42 79.22,155.18 83.19,158.62C88.88,163.55 91,170.79 92.46,177.98C93.04,180.84 90.74,182.85 88.78,184.68C87.61,185.77 85.76,186.27 85.74,188.32C84.45,188.4 83.17,188.47 82.43,187.07L82.42,187.07Z" style="fill-rule:nonzero;"/>
        <path d="M72.34,122.21C72.55,120.07 72.62,117.91 73,115.8C73.54,112.76 72.64,110.64 69.72,109.42C67.09,108.33 64.79,106.94 66.56,103.5C68.15,100.41 70.61,99.26 73.98,100.51C81.08,103.16 87.19,107.23 92.11,113.07C95.89,117.57 95.97,117.51 98.06,111.99C98.39,111.12 98.3,109.83 99.6,109.75C100.78,109.67 101.16,110.77 101.64,111.61C105.01,117.55 102.44,130.44 97.11,134.58C95.76,135.63 94.41,135.88 93.05,134.8C92.15,134.09 91.36,133.22 90.58,132.36C88.96,130.56 88.27,127.04 85.74,127.2C83.26,127.36 83.87,130.97 82.75,132.89C80.87,136.11 78,136.39 75.59,133.4C72.97,130.15 72.1,126.33 72.35,122.19L72.34,122.21Z" style="fill-rule:nonzero;"/>
        <path d="M157.29,175.8C157.16,185.26 147.56,191.84 140.35,189.51C137.24,188.5 136.65,187.05 138.84,184.55C139.6,183.68 140.22,182.69 140.94,181.78C142.12,180.29 143.4,178.76 141.15,177.2C139.08,175.76 137.73,177.17 136.59,178.67C134.3,181.69 132.09,184.77 129.85,187.82C129.39,188.44 129.16,189.54 128.09,189.08C127.16,188.68 127.36,187.71 127.55,186.93C129.48,179.05 133.28,172.23 139.46,166.91C142.1,164.64 145.18,163.41 148.58,165.45C153.27,168.28 157.02,171.81 157.29,175.8Z" style="fill-rule:nonzero;"/>
        <path d="M226.37,72.38C221.97,73.2 217.57,74.06 213.16,74.77C212.26,74.92 210.88,74.83 210.4,74.27C209.43,73.15 210.61,72.1 211.33,71.28C227.9,52.52 218.75,32.91 213.15,13.48C212.54,11.37 210.34,10.21 207.94,10.34C205.52,10.47 204.66,12.41 203.98,14.29C203.48,15.68 203,17.19 203.06,18.63C203.24,23.08 200.99,26.06 197.83,28.82C188.05,37.36 176.2,41.54 164.09,45.21C161.72,45.93 159.68,45.09 158.61,42.92C156.24,38.11 152.4,37.58 147.71,38.54C142.19,39.68 136.57,41.9 131.46,36.97C130.49,36.03 128.28,36.12 126.66,36.15C121,36.26 115.59,37.98 110.01,33.71C106.34,30.91 102.08,35.33 98.41,37.46C96.71,38.44 94.68,41.18 93.47,40.32C86.93,35.7 81.9,40.22 75.85,41.56C66.63,43.61 54,36.63 50.45,27.81C47.22,19.8 44.57,11.6 41.42,3.58C40.72,1.79 39.9,-1.81 37.29,1.08C33.7,5.05 29.17,8.57 27.95,14.32C26.32,21.96 24.68,29.57 25.71,37.48C26.2,41.25 27.08,45.17 26.52,48.84C25.21,57.44 28.31,64.08 34.13,69.92C35.02,70.81 36.68,71.65 35.85,73.11C35.03,74.54 33.44,73.49 32.22,73.29C22.68,71.72 13.53,68.8 4.51,65.41C2.27,64.57 -0.55,63.65 0.11,67.84C2.26,81.34 4.96,94.91 13.03,106.17C21.45,117.94 32.12,126.8 48.32,122.96C50.84,122.36 51.95,123.33 52.79,125.52C55.28,132.02 57.83,138.51 60.5,144.93C61.58,147.53 60.94,149.22 58.76,150.89C54.86,153.87 52.37,157.9 50.34,162.38C45.86,172.25 45.66,182.64 45.99,193.14C46.24,201.11 50.65,204.38 58.51,202.49C62.7,201.48 66.91,200.55 71.11,199.59C77.62,197.3 78.44,198.21 77.38,205.92C76,215.96 75.92,226.01 77.4,236.07C78.54,243.81 81.44,249.88 89.78,252.19C98.17,254.52 105.54,252.86 112.02,247.33C122.75,238.17 129.71,226.49 134.01,213.17C134.79,210.76 135.4,208.48 138.66,210.39C144.56,212.6 150.48,214.75 156.36,217.02C160.44,218.6 163.93,217.48 165.8,213.89C174.7,196.89 177.74,179.53 167.64,161.81C165.34,157.78 162.87,153.85 160.47,149.87C159.27,147.89 159.04,145.92 160.02,143.73C162.99,137.07 165.95,130.4 168.73,123.65C170.69,118.9 173.79,117.65 178.63,119.2C184.84,121.2 191.37,122.53 197.78,121.09C211.52,117.99 224.84,113.65 229.2,97.97C230.79,92.25 232.68,86.67 234.5,81.05C236.54,74.73 233.07,71.14 226.39,72.39L226.37,72.38ZM128.27,210.55C123.49,224.35 116.92,237.07 104.14,245.19C98.31,248.89 93.07,246.81 89.74,240.64C86.58,234.78 85.9,228.42 85.63,220.45C86.28,215.84 87.16,209.81 87.98,203.76C88.5,199.94 90.73,198.81 94.28,199.61C95.41,199.86 96.53,200.16 97.68,200.29C102.667,200.85 104.523,203.503 103.25,208.25C101.79,213.67 100.32,219.08 98.84,224.5C98.62,225.31 98.31,226.21 99.02,226.82C99.77,227.47 100.51,226.71 101.26,226.47C106.28,224.87 109.14,221.37 110.38,216.36C110.7,215.08 111.2,213.85 111.61,212.59C114.97,202.31 114.94,202.4 125.41,205.82C128.06,206.68 129.08,208.23 128.26,210.57L128.27,210.55ZM160.73,176.41C160.73,181.07 160.73,185.73 160.74,190.38C160.64,191.06 160.54,191.74 160.45,192.41C161.08,192.93 161.19,193.38 160.94,193.76C161.19,193.37 161.08,192.93 160.45,192.41C159.56,192.95 159.49,193.62 160.14,194.4C160.12,194.86 160.09,195.32 160.07,195.79C157.88,197.83 157.47,200.71 156.47,203.32C154.21,205.01 152.12,203.82 149.98,202.98C142.67,200.09 135.37,197.15 127.49,196.14C126.9,195.46 126.19,195.4 125.4,195.71C122.76,195.23 120.12,194.74 117.48,194.26C116.94,193.53 116.23,193.45 115.43,193.75C110.48,192.9 105.52,192.05 100.57,191.2C100,190.51 99.29,190.43 98.5,190.75L85.72,188.31C84.43,188.39 83.14,188.46 82.41,187.06C74.04,187.06 65.66,187.08 57.29,187.08C56.73,186.52 56.18,185.96 55.63,185.4L55.86,177.47C56.53,176.89 56.63,176.19 56.3,175.39C58.49,162.68 63.68,151.9 75.61,145.48C75.66,144.39 75.71,143.3 75.76,142.21C75.72,141.66 75.68,141.11 75.64,140.56C76.3,140.33 76.83,139.79 76.43,139.22C75.86,138.4 75.12,138.68 74.58,139.44C71.58,139.57 70.38,137.99 69.52,135.19C67.25,127.76 65.14,120.41 64.55,112.55C64.01,105.37 55.29,90.83 44.48,88.94C39.94,88.14 35.52,86.7 30.86,86.59C29.15,85.54 27.45,85.53 25.75,86.63C23.75,86.95 21.75,87.26 19.75,87.58C18.77,87.5 17.25,87.44 17.29,88.42C17.37,90.5 19.42,89.79 20.7,90.14C21.72,90.39 22.74,90.64 23.76,90.89C24.32,91.59 25.01,91.75 25.82,91.4C30.08,91.45 32.99,94.06 35.88,96.7C36.54,96.77 37.02,96.99 37.31,97.36C37.01,96.99 36.54,96.77 35.87,96.7C35.87,97.93 36.53,98.61 37.67,98.9C38.34,100.48 39.51,101.65 40.81,102.71C41.5,102.77 41.98,102.99 42.26,103.35C41.97,102.99 41.5,102.77 40.81,102.71C40.81,103.94 41.54,104.62 42.57,105.08C42.53,105.33 42.61,105.54 42.82,105.7C43.74,105.78 44.27,106.15 44.49,106.75C44.27,106.15 43.74,105.78 42.82,105.7C42.82,106.92 43.56,107.59 44.57,108.06C46.36,111.19 45.28,112.56 41.84,112.82C37.69,113.13 33.97,112.14 30.55,109.8C19.78,102.4 12.36,92.49 8.58,80C7.3,75.79 8.53,74.77 12.7,76.28C22.43,79.8 32.46,81.74 42.73,82.89C48,83.48 53.08,85.25 57.81,87.77C59.58,88.71 61.32,89.64 63.41,89.62C64.93,89.61 66.51,89.66 67.32,88.07C68.01,86.72 67.54,85.37 66.53,84.43C64.07,82.13 64.96,80.98 67.42,79.2C75.98,73.02 77.16,61.2 70.23,54.05C66.59,54.72 66.33,57.87 65.86,60.53C65.08,65.01 62.47,66.5 58.21,66.51C44.22,66.53 31.3,54.2 31.1,40.21C30.99,32.15 29.98,23.92 33.73,16.28C34.34,15.03 34.47,13 36.31,13.03C37.87,13.05 37.98,14.93 38.51,16.05C40.33,19.94 42.6,23.77 43.59,27.88C46.04,38.03 52.35,44.3 61.81,47.84C64.75,48.94 67.73,49.92 70.7,50.95C75.48,51.99 80.4,53.52 81.88,46.34C82.15,45 83.47,44.75 84.65,45.7C85.03,46 85.32,46.42 85.65,46.79C89.843,51.423 94.267,51.71 98.92,47.65C99.67,47 100.38,46.3 101.11,45.63C103.91,43.077 106.163,43.47 107.87,46.81C110.99,52.91 112.23,53.22 117.86,49.23C118.8,48.56 119.68,47.78 120.65,47.16C123.68,45.21 125.95,45.46 126.86,49.42C127.08,50.39 127.33,51.35 127.62,52.3C127.99,53.51 127.85,55.19 129.48,55.48C130.78,55.71 131.38,54.37 132.17,53.57C134.02,51.68 135.69,49.56 137.74,47.91C142.71,43.92 147.5,45.4 149.65,51.34C150.63,54.06 150.64,56.85 150.63,59.67C150.63,60.93 149.73,62.57 151.09,63.35C152.86,64.37 153.5,62.14 154.71,61.49C155.84,60.89 156.51,59.49 158.06,59.61C159.94,55.68 162.98,53.88 167.4,53.36C177.6,52.14 186.9,48.44 195.11,42.11C199.99,38.35 204.36,34.39 205.46,27.84C205.66,26.63 206.37,24.38 207.87,24.47C209.57,24.58 209.91,27.02 209.96,28.25C210.24,35.43 212.36,42.37 212.21,49.65C212.08,56.21 209.31,60.55 203.56,62.87C192.48,67.34 180.69,69.45 169.24,72.7C167.52,73.19 166.35,72.67 165.95,70.77C165.71,69.64 165.12,68.56 165.02,67.43C164.61,62.55 162.64,61.02 158.33,64.1C152.68,69.82 145.2,71.27 137.78,72.82C136.33,73.12 134.85,73.29 133.39,73.51C131.9,75.91 129.25,74.5 127.15,74.88C129.26,74.5 131.9,75.9 133.39,73.5C129.82,73.32 126.24,73.08 122.67,73C121.7,72.98 120.1,72.37 120.03,74.17C119.98,75.28 121.17,75.62 122.06,76.03C123.18,76.54 124.28,76.47 125.37,75.95C128.09,76.02 130.74,77.16 133.52,76.53C135.04,76.1 136.56,75.61 138.04,75.69C136.56,75.61 135.04,76.09 133.52,76.53C136.01,78.26 138.7,77.63 141.37,77.18C144.67,78.02 148.02,77.79 151.37,77.69C151.72,77.24 152.05,77.04 152.36,77.06C152.05,77.04 151.72,77.24 151.37,77.69C151.95,78.53 152.59,78.65 153.33,77.88C157.38,78.68 158.21,82.34 159.67,85.3C161.17,88.34 162.26,91.59 163.53,94.75C164.28,94.83 165.03,94.92 165.78,95C169.59,93.34 173.4,91.68 177.21,90.02C177.58,89.11 178.22,88.88 178.96,88.91C178.22,88.87 177.58,89.11 177.21,90.02C178.45,90.7 179.12,89.93 179.74,89.02C182.58,89.14 185.42,89.17 188.15,88.19C188.45,87.33 188.84,86.79 189.44,87.08C188.84,86.79 188.45,87.33 188.15,88.19C188.97,88.63 189.63,88.46 190.12,87.67C194.3,87.67 198.09,85.87 202.1,85.07C202.47,84.15 202.94,83.65 203.69,84.25C202.94,83.65 202.47,84.15 202.1,85.07C202.91,85.56 203.56,85.42 204.03,84.58L211.09,83.82C212.44,84.7 213.76,84.78 215,83.62C218.31,84.12 221.53,83.51 224.76,82.94C225.28,83.53 225.79,84.12 226.31,84.7C226.15,86.23 225.98,87.77 225.82,89.3C224.87,89.87 224.13,90.55 224.59,91.81C223.21,94.96 221.98,98.19 220.43,101.26C217.7,106.65 212.49,108.25 207.13,109.5C206.74,110.41 206.25,110.87 205.52,110.26C206.25,110.87 206.74,110.41 207.13,109.5C206.33,108.97 205.7,109.19 205.19,109.93C204.18,110.06 203.16,110.19 202.15,110.32C201.38,111.83 200.39,112.02 199.29,111.56C200.39,112.02 201.38,111.83 202.15,110.32C200.74,109.9 199.35,109.59 198.25,110.98C196.38,111.16 194.51,111.34 192.64,111.52C191.84,110.34 190.72,109.3 190.98,107.66C194.12,105.87 195.33,102.25 198.12,100.13C198.43,99.23 198.83,98.59 199.65,99.14C198.83,98.59 198.43,99.23 198.12,100.13C198.96,100.48 199.61,100.29 200.03,99.45C205.91,98.19 211.36,96.03 215.81,91.82C214.68,91.67 213.54,91.51 212.41,91.36C210.83,91.29 209.45,91.87 208.12,92.66C207.66,93.64 206.89,93.77 206.02,93.65C206.89,93.77 207.66,93.63 208.12,92.65C206.9,91.92 206.24,92.68 205.64,93.58C203.15,93.64 200.65,93.71 198.16,93.77C197.45,92.99 196.8,93.08 196.21,93.92C194.51,93.73 192.82,93.71 191.21,94.42C190.69,95.65 189.99,96 189.16,95.61C188.88,95.48 188.59,95.27 188.28,94.98C185.36,95.14 182.79,96.35 180.24,97.61C179.85,98.48 179.2,98.69 178.46,98.65C179.2,98.69 179.85,98.48 180.24,97.6C179.01,96.88 178.37,97.67 177.76,98.55C172.66,99.63 166.75,99.38 165.05,106.15C163.64,106.87 163.36,109.15 161.25,108.9C159.59,105.79 156.91,106.37 154.41,107.24C146.74,109.91 139.72,113.68 134.44,120.1C134.32,120.67 134.14,121.29 133.55,121.32C134.14,121.28 134.32,120.67 134.44,120.1C133.76,120.16 133.08,120.23 132.4,120.29C131.01,117.77 129.62,115.24 128.22,112.72C127.53,112.74 126.85,112.75 126.16,112.77C124.9,119.84 125.25,126.93 126.07,134.01C126.48,137.54 128.5,138.09 131.32,136.49C133.04,135.52 134.57,134.19 136.32,133.28C137.9,132.46 139.46,130.35 141.49,132.61C142.28,132.78 142.82,133.03 143.1,133.35C142.82,133.03 142.28,132.78 141.49,132.61C141.4,133.73 141.05,134.92 142.39,135.6C142.31,137.06 143.07,137.98 144.3,138.62C144.46,139.14 144.72,139.5 145.35,139.38C146.35,139.36 147.35,139.33 148.34,139.31C151.94,133.2 155.05,126.91 155.53,119.65C155.57,119.03 155.92,118.36 156.29,117.83C157.47,116.15 158.48,113.38 160.93,114.34C163.6,115.39 161.62,117.8 161.18,119.54C159.52,126.12 157,132.36 153.52,138.2C152.71,139.56 152.49,141.47 150.35,141.6C149.02,142.96 147.7,144.33 146.37,145.69C145.95,146.8 145.53,147.91 145.11,149.02C148.54,155.05 153.64,159.81 157.54,165.49C158.76,165.96 159.69,166.57 159.87,167.55C159.69,166.57 158.76,165.96 157.54,165.49C157.64,167.07 158.15,168.45 159.48,169.43C159.67,170.11 159.86,170.78 160.05,171.46C160.88,171.81 161.36,172.24 161.01,172.83C161.35,172.24 160.88,171.81 160.05,171.46C159.59,172.24 159.72,172.9 160.46,173.43C160.56,174.44 160.66,175.45 160.75,176.46M127.02,74.87C126.75,74.93 126.49,75.02 126.25,75.15C126.49,75.01 126.75,74.93 127.02,74.87ZM78.8,143.39C78.78,141.85 76.76,142.77 75.76,142.22C75.71,143.31 75.66,144.4 75.61,145.49C77.13,145.43 78.82,144.87 78.8,143.39Z" style="fill-rule:nonzero;"/>
        <path d="M145.09,148.99C145.51,147.88 145.93,146.77 146.35,145.66C144.34,146.17 142.47,146.73 145.09,148.99Z" style="fill-rule:nonzero;"/>
        <path d="M126.98,110.92C125.97,110.96 125.74,111.82 126.14,112.75C126.83,112.73 127.51,112.72 128.2,112.7C128.27,111.77 127.94,110.88 126.98,110.92Z" style="fill-rule:nonzero;"/>
        <path d="M165.79,94.96C165.04,94.88 164.29,94.79 163.54,94.71C164.01,97.32 164.93,95.87 165.79,94.96Z" style="fill-rule:nonzero;"/>
    </g>
</svg>
