<?xml version="1.0" encoding="UTF-8" standalone="no"?><!DOCTYPE svg PUBLIC "-//W3C//DTD SVG 1.1//EN" "http://www.w3.org/Graphics/SVG/1.1/DTD/svg11.dtd"><svg width="100%" height="100%" viewBox="0 0 165 45" version="1.1" xmlns="http://www.w3.org/2000/svg" xmlns:xlink="http://www.w3.org/1999/xlink" xml:space="preserve" xmlns:serif="http://www.serif.com/" style="fill-rule:evenodd;clip-rule:evenodd;stroke-linejoin:round;stroke-miterlimit:2;"><path d="M37.333,45c0.36,-2.889 -0.968,-1.891 -2.213,-1.914c-6.212,-0.115 -12.53,-0.489 -18.327,-0.958c-2.777,-0.224 -6.261,0.578 -8.848,0c-0.185,-0.042 -1.067,-1.687 -2.213,-0.958l-0.631,-2.394l1.895,-3.351l-2.527,0l-0,-1.914l-3.159,0l1.264,-2.872l1.896,-0.958l-2.213,-0.958l0.316,-1.436c0,0 -2.976,-1.649 -2.527,-2.395c0.387,-0.643 2.844,0.958 2.844,0.958l3.476,-3.351l-1.264,-0.478l-0,-1.914l1.264,-0.958l-2.527,-0l-0,-2.872l6.319,-0l-0.632,-2.872c-0.991,0.93 -2.173,1.596 -3.16,0.478l-3.16,-0.478c0.733,-2.536 2.844,-3.121 4.424,-2.872c-0,-0 -2.619,-3.722 -1.896,-4.787c0.622,-0.915 4.424,-0 4.424,-0c0,-0 -0.838,-1.455 -0.632,-1.914c0.247,-0.55 2.213,-0.958 2.213,-0.958c1.256,-0.547 1.712,0.908 1.895,0.958c2.464,0.665 5.927,-0.481 8.531,-0c0,-0 -0.338,-1.576 0,-1.914c0.224,-0.224 1.265,-0 1.265,-0l0,-1.918l1.895,-0l0,1.914c3.35,-0.626 7.892,0.857 11.061,-0c0.233,-0.064 0.373,-0.838 0.632,-0.958c1.234,-0.567 1.717,0.909 1.895,0.958c6.316,1.706 15.286,-1.404 20.857,-0c7.801,1.966 21.229,-2.233 27.808,-0c3.767,1.278 35.815,0.45 39.184,-0.958c0.56,-0.234 8.822,1.228 11.375,0.958c1.244,-0.132 1.746,-0.803 2.844,-0.958l-1.264,1.914c1.145,-0.73 2.027,0.916 2.212,0.958c1.127,0.251 5.775,-0.346 6.004,-0c1.494,7.393 7.681,4.017 11.061,7.659l2.844,0.958l-3.16,2.394l1.265,2.394l-2.528,-0l1.265,2.872l-2.527,1.914l2.844,0.958c1.459,2.912 3.094,4.022 5.371,1.914l-1.264,1.914l-0,2.394l-1.896,2.394l2.212,0.958l1.58,1.914l-4.424,0l0,2.872c-1.928,-0.815 -3.787,1.519 -5.371,0.958c-3.672,-1.3 -5.79,-1.292 -9.479,0c-0.248,0.086 -0.393,0.89 -0.632,0.958c-0.846,0.236 -1.939,-0.157 -2.844,0l0.632,1.914l-26.859,0c-11.383,1.509 -28.046,-0.694 -39.816,1.914c-1.734,0.385 -11.386,1.178 -12.008,0.958c-5.456,-1.931 -17.14,-1.456 -23.384,-0.958c-1.24,0.099 -2.361,-0.538 -2.844,1.914l-0.634,0l-0.004,0.005Z" style="fill-rule:nonzero;"/></svg>