<?xml version="1.0" encoding="UTF-8"?>
<svg id="Ebene_1" data-name="Ebene 1" xmlns="http://www.w3.org/2000/svg" viewBox="0 0 135.028 33.307">
  <path d="M30.524,33.307c.295-2.138-.792-1.4-1.811-1.417-5.085-.085-10.257-.362-15.003-.709-2.273-.166-5.125.428-7.243,0-.151-.031-.873-1.249-1.811-.709l-.517-1.772,1.552-2.48h-2.069v-1.417H1.035l1.035-2.126,1.552-.709-1.811-.709.259-1.063-2.069-1.772,2.328.709,2.845-2.48-1.035-.354v-1.417l1.035-.709h-2.069v-2.126h5.173l-.517-2.126c-.812.688-1.779,1.181-2.587.354l-2.587-.354c.6-1.877,2.328-2.31,3.621-2.126l-1.552-3.543h3.621l-.517-1.417,1.811-.709c1.029-.405,1.402.672,1.552.709,2.017.492,4.852-.356,6.984,0v-1.417h1.035V0h1.552v1.417c2.742-.463,6.46.634,9.054,0,.191-.047.305-.62.517-.709,1.01-.42,1.406.673,1.552.709,5.17,1.263,12.513-1.039,17.073,0,6.386,1.455,17.378-1.653,22.763,0,3.084.946,29.318.333,32.076-.709.459-.173,7.222.909,9.312.709,1.018-.098,1.429-.594,2.328-.709l-1.035,1.417c.938-.54,1.66.678,1.811.709.922.186,4.728-.256,4.915,0,1.223,5.472,6.287,2.973,9.054,5.669l2.328.709-2.587,1.772,1.035,1.772h-2.069l1.035,2.126-2.069,1.417,2.328.709c1.195,2.155,2.533,2.977,4.397,1.417l-1.035,1.417v1.772l-1.552,1.772,1.811.709,1.293,1.417h-3.621v2.126c-1.579-.603-3.1,1.124-4.397.709-3.006-.962-4.74-.956-7.76,0-.203.064-.322.659-.517.709-.692.175-1.588-.116-2.328,0l.517,1.417h-21.987c-9.318,1.117-22.958-.514-32.593,1.417-1.42.285-9.32.872-9.83.709-4.466-1.429-14.031-1.078-19.142-.709-1.015.073-1.932-.398-2.328,1.417h-.517Z"/>
</svg>